<svg xmlns="http://www.w3.org/2000/svg" viewBox="0 0 23.37 26.41"><defs><style>.cls-1{fill:#7db4d8;}</style></defs><g id="Capa_2" data-name="Capa 2"><g id="productos_y_servicios" data-name="productos y servicios"><g id="Capa_19" data-name="Capa 19"><path class="cls-1" d="M16.38,14.46V19a7.38,7.38,0,0,1-.07.81,1.76,1.76,0,0,1-.69,1.47,1.85,1.85,0,0,0-.12,2.68,2,2,0,0,0,2.81.11,1.88,1.88,0,0,0,.07-2.72,1.05,1.05,0,0,1-.32-1c.08-1.72.1-3.44.15-5.16v-.42A6.32,6.32,0,0,1,22,17.59a10,10,0,0,1,1.32,5c0,1.16,0,2.32,0,3.48a1.58,1.58,0,0,1-.05.29H.52c-.39,0-.54-.1-.52-.51.08-1.78,0-3.58.24-5.35a6.41,6.41,0,0,1,3.17-5.09c.41-.24.86-.41,1.31-.62.14.81.28,1.55.37,2.29,0,.1-.17.28-.3.34a3.45,3.45,0,0,0-2.16,3.64c.14,1.06.31,2.13.48,3.19a1.3,1.3,0,0,0,1.47,1.26.92.92,0,0,0,.83-.64,1,1,0,0,0-.24-1,1.49,1.49,0,0,1-.3-.62c-.15-.77-.23-1.56-.38-2.33a1.48,1.48,0,0,1,.65-1.55A2.74,2.74,0,0,1,7.44,19,1.56,1.56,0,0,1,8.8,20.5c.08.53.18,1.05.25,1.57A2.32,2.32,0,0,1,9,23.56a.88.88,0,0,0,.83,1.18,1.28,1.28,0,0,0,1.3-1.59c-.16-1.1-.34-2.19-.51-3.29a2.71,2.71,0,0,0-1.2-2,9.05,9.05,0,0,0-2-.81c-.29-.08-.47-.15-.51-.45-.07-.62-.15-1.25-.23-1.87,0-.26.07-.35.34-.4a1.81,1.81,0,0,1,1.59.42c.88.75,1.83,1.42,2.74,2.14a.39.39,0,0,0,.58,0c.93-.74,1.88-1.46,2.82-2.19C15.4,14.23,15.41,14.23,16.38,14.46Z"/><path class="cls-1" d="M11.62,13.07a6.54,6.54,0,1,1,6.54-6.49A6.54,6.54,0,0,1,11.62,13.07Z"/></g></g></g></svg>