<?xml version="1.0" encoding="utf-8"?>
<!-- Generator: Adobe Illustrator 24.1.2, SVG Export Plug-In . SVG Version: 6.00 Build 0)  -->
<svg version="1.1" id="Capa_1" xmlns="http://www.w3.org/2000/svg" xmlns:xlink="http://www.w3.org/1999/xlink" x="0px" y="0px"
	 viewBox="0 0 255 243.1" style="enable-background:new 0 0 255 243.1;" xml:space="preserve">
<style type="text/css">
	.st0{fill:none;stroke:#9FAD62;stroke-width:0.77;stroke-miterlimit:10;stroke-dasharray:4.64,4.64;}
	.st1{fill:#D3D6B0;}
	.st2{fill:#9FAD62;}
	.st3{fill:#FFFFFF;}
	.st4{enable-background:new    ;}
	.st5{clip-path:url(#SVGID_2_);}
	.st6{fill:none;stroke:#FFFFFF;stroke-width:0.43;stroke-miterlimit:10;}
	.st7{fill:none;stroke:#FFFFFF;stroke-width:0.51;stroke-miterlimit:10;}
	.st8{fill:none;stroke:#FFFFFF;stroke-width:0.14;stroke-miterlimit:10;}
</style>
<g>
	<circle class="st0" cx="127.5" cy="130.6" r="112.2"/>
	<circle class="st1" cx="49.9" cy="173.4" r="49.9"/>
	<circle class="st1" cx="127.5" cy="49.9" r="49.9"/>
	<circle class="st1" cx="205.1" cy="173.4" r="49.9"/>
	<circle class="st2" cx="127.5" cy="130.6" r="58.8"/>
</g>
<g>
	<path class="st3" d="M33.8,196.8l1.8,4.9l1.8-4.9h1.9v6.8h-1.5v-1.8l0.1-3.2l-1.9,5h-1l-1.9-5l0.1,3.2v1.8h-1.5v-6.8H33.8z"/>
	<path class="st3" d="M45,200.6h-2.8v1.8h3.3v1.1h-4.8v-6.8h4.8v1.1h-3.3v1.6H45V200.6z M43.4,195H45l-1.4,1.4h-1.1L43.4,195z"/>
	<path class="st3" d="M46.3,203.6v-6.8h2.2c0.6,0,1.2,0.1,1.7,0.4c0.5,0.3,0.9,0.6,1.2,1.1c0.3,0.5,0.4,1.1,0.4,1.7v0.3
		c0,0.6-0.1,1.2-0.4,1.7c-0.3,0.5-0.7,0.9-1.2,1.1c-0.5,0.3-1.1,0.4-1.7,0.4H46.3z M47.8,197.9v4.5h0.7c0.6,0,1-0.2,1.3-0.5
		c0.3-0.4,0.5-0.9,0.5-1.5V200c0-0.7-0.1-1.2-0.4-1.6s-0.7-0.5-1.3-0.5H47.8z"/>
	<path class="st3" d="M54.4,203.6h-1.5v-6.8h1.5V203.6z"/>
	<path class="st3" d="M61.3,201.3c-0.1,0.7-0.3,1.3-0.8,1.7s-1.2,0.6-2,0.6c-0.9,0-1.6-0.3-2.2-0.9c-0.5-0.6-0.8-1.4-0.8-2.4V200
		c0-0.7,0.1-1.2,0.4-1.7c0.2-0.5,0.6-0.9,1-1.1c0.4-0.3,1-0.4,1.6-0.4c0.8,0,1.5,0.2,2,0.6s0.8,1,0.9,1.8h-1.5c0-0.4-0.2-0.8-0.4-1
		c-0.2-0.2-0.6-0.3-1-0.3c-0.5,0-0.9,0.2-1.1,0.5c-0.2,0.3-0.4,0.8-0.4,1.5v0.5c0,0.7,0.1,1.3,0.3,1.6c0.2,0.3,0.6,0.5,1.1,0.5
		c0.5,0,0.8-0.1,1-0.3c0.2-0.2,0.4-0.5,0.4-0.9H61.3z"/>
	<path class="st3" d="M68.1,200.3c0,0.7-0.1,1.3-0.4,1.8c-0.2,0.5-0.6,0.9-1.1,1.2c-0.5,0.3-1,0.4-1.6,0.4c-0.6,0-1.1-0.1-1.6-0.4
		c-0.5-0.3-0.8-0.7-1.1-1.2c-0.3-0.5-0.4-1.1-0.4-1.7V200c0-0.7,0.1-1.3,0.4-1.8c0.3-0.5,0.6-0.9,1.1-1.2c0.5-0.3,1-0.4,1.6-0.4
		s1.1,0.1,1.6,0.4c0.5,0.3,0.8,0.7,1.1,1.2c0.3,0.5,0.4,1.1,0.4,1.8V200.3z M66.6,200c0-0.7-0.1-1.2-0.4-1.6
		c-0.3-0.4-0.6-0.6-1.1-0.6c-0.5,0-0.9,0.2-1.1,0.5c-0.3,0.4-0.4,0.9-0.4,1.6v0.3c0,0.7,0.1,1.2,0.4,1.6c0.3,0.4,0.7,0.6,1.2,0.6
		c0.5,0,0.9-0.2,1.1-0.5c0.3-0.4,0.4-0.9,0.4-1.6V200z"/>
	<path class="st3" d="M54.9,167.9v4.8c0,0.3,0,0.6-0.1,0.9c0,0.6-0.3,1.2-0.8,1.6c-0.8,0.7-0.9,2-0.2,2.8c0,0,0,0,0,0
		c0.8,0.9,2.1,0.9,3,0.2c0,0,0,0,0,0c0.8-0.7,0.9-2,0.2-2.8c0,0,0-0.1-0.1-0.1c-0.3-0.3-0.4-0.6-0.3-1c0.1-1.8,0.1-3.7,0.2-5.5v-0.4
		c1.7,0.4,3.2,1.5,4.1,3c0.9,1.6,1.4,3.5,1.4,5.4c0,1.2,0,2.5,0,3.7c0,0.1,0,0.2-0.1,0.3H37.9c-0.4,0-0.6-0.1-0.5-0.5
		c0.1-1.9,0-3.8,0.3-5.7c0.2-2.3,1.4-4.3,3.4-5.5c0.4-0.3,0.9-0.4,1.4-0.7c0.2,0.9,0.3,1.7,0.4,2.5c0,0.1-0.2,0.3-0.3,0.4
		c-1.1,0.5-2,1.5-2.3,2.7c-0.1,0.4-0.1,0.8,0,1.2c0.1,1.1,0.3,2.3,0.5,3.4c0,0.8,0.6,1.4,1.4,1.4c0.1,0,0.1,0,0.2,0
		c0.4,0,0.8-0.3,0.9-0.7c0.1-0.4,0-0.7-0.3-1c-0.2-0.2-0.3-0.4-0.3-0.7c-0.2-0.8-0.2-1.7-0.4-2.5c-0.1-0.6,0.1-1.3,0.7-1.6
		c0.7-0.5,1.6-0.7,2.5-0.5c0.8,0.1,1.4,0.8,1.5,1.6c0.1,0.6,0.2,1.1,0.3,1.7c0.2,0.5,0.1,1.1-0.1,1.6c-0.2,0.5,0.1,1,0.6,1.2
		c0.1,0,0.2,0.1,0.3,0.1c0.7,0,1.4-0.5,1.4-1.3c0-0.1,0-0.3,0-0.4c-0.2-1.2-0.4-2.4-0.5-3.5c-0.1-0.9-0.6-1.6-1.3-2.1
		c-0.7-0.4-1.4-0.7-2.1-0.9c-0.3-0.1-0.5-0.2-0.5-0.5c-0.1-0.7-0.2-1.3-0.3-2c0-0.3,0.1-0.4,0.4-0.4c0.6-0.1,1.2,0,1.7,0.4
		c0.9,0.8,2,1.5,2.9,2.3c0.2,0.2,0.4,0.2,0.6,0c0,0,0,0,0,0c1-0.8,2-1.6,3-2.3C53.8,167.7,53.8,167.7,54.9,167.9z"/>
	<path class="st3" d="M49.8,166.4c-3.9,0-7-3.1-7-7c0-3.9,3.1-7,7-7s7,3.1,7,7c0,0,0,0,0,0.1C56.7,163.3,53.6,166.4,49.8,166.4z"/>
</g>
<g>
	<g class="st4">
		<path class="st3" d="M106.6,25.6V28h-1.5v-6.8h2.8c0.5,0,1,0.1,1.4,0.3c0.4,0.2,0.7,0.4,0.9,0.8c0.2,0.3,0.3,0.7,0.3,1.2
			c0,0.7-0.2,1.2-0.7,1.6s-1.1,0.6-2,0.6H106.6z M106.6,24.5h1.3c0.4,0,0.7-0.1,0.9-0.3s0.3-0.4,0.3-0.7c0-0.3-0.1-0.6-0.3-0.8
			c-0.2-0.2-0.5-0.3-0.9-0.3h-1.3V24.5z"/>
	</g>
	<g class="st4">
		<path class="st3" d="M114.7,26.6h-2.6l-0.5,1.4h-1.6l2.6-6.8h1.4l2.7,6.8h-1.6L114.7,26.6z M112.5,25.5h1.8l-0.9-2.5L112.5,25.5z"
			/>
	</g>
	<path class="st3" d="M122.9,25.8c-0.1,0.7-0.3,1.3-0.8,1.7c-0.5,0.4-1.2,0.6-2,0.6c-0.9,0-1.6-0.3-2.2-0.9
		c-0.5-0.6-0.8-1.4-0.8-2.4v-0.4c0-0.6,0.1-1.2,0.4-1.7c0.2-0.5,0.6-0.9,1-1.1c0.4-0.3,1-0.4,1.6-0.4c0.8,0,1.5,0.2,2,0.6
		s0.8,1,0.9,1.8h-1.5c0-0.4-0.2-0.8-0.4-0.9c-0.2-0.2-0.6-0.3-1-0.3c-0.5,0-0.9,0.2-1.1,0.5c-0.2,0.3-0.4,0.8-0.4,1.5v0.5
		c0,0.7,0.1,1.3,0.3,1.6c0.2,0.3,0.6,0.5,1.1,0.5c0.5,0,0.8-0.1,1-0.3c0.2-0.2,0.4-0.5,0.4-0.9H122.9z"/>
	<path class="st3" d="M125.4,28H124v-6.8h1.5V28z"/>
	<path class="st3" d="M131.1,25.1h-2.8v1.8h3.3V28h-4.8v-6.8h4.8v1.1h-3.3V24h2.8V25.1z"/>
	<g class="st4">
		<path class="st3" d="M138.2,28h-1.5l-2.9-4.4V28h-1.5v-6.8h1.5l2.9,4.5v-4.5h1.5V28z"/>
	</g>
	<path class="st3" d="M144.7,22.4h-2.2V28h-1.5v-5.6h-2.2v-1.1h5.8V22.4z"/>
	<path class="st3" d="M149.8,25.1H147v1.8h3.3V28h-4.8v-6.8h4.8v1.1H147V24h2.8V25.1z"/>
	<path class="st3" d="M121.4,39.1c0-3.4,2.7-6.1,6.1-6.1c3.4,0,6.1,2.7,6.1,6.1c0,3.4-2.7,6.1-6.1,6.1c0,0,0,0,0,0
		C124.1,45.2,121.4,42.5,121.4,39.1C121.4,39.1,121.4,39.1,121.4,39.1z"/>
	<path class="st3" d="M138,57.6c0-0.9,0-1.8,0-2.7c0.1-2.4-1.2-4.7-3.3-5.9c-2-1.2-4.2-1.8-6.5-1.8c-2.6-0.2-5.2,0.3-7.6,1.5
		c-2.3,1.1-3.8,3.5-3.7,6.1c0,1,0,2,0,2.9c0,0.6,0.2,0.7,0.7,0.7c3.3,0,6.5,0,9.8,0c3.3,0,6.5,0,9.8,0
		C137.9,58.4,138.1,58.2,138,57.6z M135,53c-0.1,0.4-0.2,0.9-0.5,1.2c-0.7,1-1.6,1.8-2.6,2.5c-1.1-0.7-2.1-1.7-2.9-2.8
		c-0.3-0.4-0.4-1-0.3-1.5c0.1-0.8,0.8-1.4,1.6-1.3c0.1,0,0.1,0,0.2,0c0.5,0.1,1,0.4,1.4,0.8c0.4-0.4,0.8-0.6,1.3-0.7
		c0.8-0.2,1.6,0.2,1.9,1C135.1,52.5,135.1,52.8,135,53z"/>
</g>
<g>
	<g class="st4">
		<path class="st3" d="M120.9,140.9c0,1.2-0.3,2.1-0.8,2.8c-0.5,0.7-1.2,1-2.2,1c-0.9,0-1.6-0.3-2.1-1l-0.1,0.8h-1.5v-10.8h1.7v3.9
			c0.5-0.6,1.2-0.9,2-0.9c0.9,0,1.7,0.3,2.2,1S120.9,139.5,120.9,140.9L120.9,140.9z M119.2,140.7c0-0.8-0.1-1.4-0.4-1.9
			c-0.3-0.4-0.7-0.6-1.3-0.6c-0.7,0-1.3,0.3-1.6,1v3.1c0.3,0.7,0.8,1,1.6,1c0.5,0,0.9-0.2,1.2-0.6c0.3-0.4,0.4-1,0.4-1.8V140.7z"/>
		<path class="st3" d="M126.8,144.6c-0.1-0.1-0.1-0.4-0.2-0.7c-0.5,0.6-1.2,0.8-2,0.8c-0.8,0-1.4-0.2-1.9-0.7
			c-0.5-0.4-0.7-1-0.7-1.6c0-0.8,0.3-1.4,0.9-1.9c0.6-0.4,1.5-0.6,2.6-0.6h1v-0.5c0-0.4-0.1-0.7-0.3-0.9c-0.2-0.2-0.6-0.4-1-0.4
			c-0.4,0-0.7,0.1-1,0.3c-0.2,0.2-0.4,0.4-0.4,0.7h-1.7c0-0.4,0.1-0.8,0.4-1.2c0.3-0.4,0.7-0.6,1.1-0.9c0.5-0.2,1-0.3,1.6-0.3
			c0.9,0,1.6,0.2,2.1,0.7c0.5,0.4,0.8,1.1,0.8,1.9v3.4c0,0.7,0.1,1.2,0.3,1.6v0.1H126.8z M124.9,143.3c0.3,0,0.7-0.1,0.9-0.2
			c0.3-0.2,0.5-0.4,0.7-0.7V141h-0.9c-0.6,0-1.1,0.1-1.4,0.3c-0.3,0.2-0.5,0.5-0.5,0.9c0,0.3,0.1,0.6,0.3,0.8
			C124.3,143.2,124.6,143.3,124.9,143.3z"/>
		<path class="st3" d="M131.6,137l0,0.8c0.5-0.6,1.3-0.9,2.2-0.9c1,0,1.7,0.4,2.1,1.2c0.6-0.8,1.3-1.2,2.3-1.2
			c0.8,0,1.5,0.2,1.9,0.7c0.4,0.5,0.6,1.1,0.6,2v5h-1.7v-4.9c0-0.5-0.1-0.8-0.3-1.1c-0.2-0.2-0.6-0.3-1-0.3c-0.4,0-0.7,0.1-0.9,0.3
			c-0.2,0.2-0.4,0.5-0.5,0.8l0,5.2h-1.7v-5c0-0.9-0.5-1.3-1.4-1.3c-0.7,0-1.2,0.3-1.5,0.8v5.5H130V137H131.6z"/>
		<path class="st3" d="M149.2,140.9c0,1.2-0.3,2.1-0.8,2.8c-0.5,0.7-1.2,1-2.2,1c-0.9,0-1.6-0.3-2.1-1l-0.1,0.8h-1.5v-10.8h1.7v3.9
			c0.5-0.6,1.2-0.9,2-0.9c0.9,0,1.7,0.3,2.2,1C148.9,138.6,149.2,139.5,149.2,140.9L149.2,140.9z M147.5,140.7
			c0-0.8-0.1-1.4-0.4-1.9c-0.3-0.4-0.7-0.6-1.3-0.6c-0.7,0-1.3,0.3-1.6,1v3.1c0.3,0.7,0.8,1,1.6,1c0.5,0,0.9-0.2,1.2-0.6
			c0.3-0.4,0.4-1,0.4-1.8V140.7z"/>
		<path class="st3" d="M155.2,143.8c-0.5,0.6-1.2,0.9-2.1,0.9c-0.8,0-1.4-0.2-1.9-0.7c-0.4-0.5-0.6-1.2-0.6-2.1V137h1.7v4.9
			c0,1,0.4,1.4,1.2,1.4c0.8,0,1.4-0.3,1.7-0.9V137h1.7v7.6h-1.6L155.2,143.8z"/>
		<path class="st3" d="M162.8,142.5c0-0.3-0.1-0.5-0.4-0.7c-0.3-0.2-0.7-0.3-1.2-0.4c-0.6-0.1-1.1-0.3-1.5-0.5
			c-0.9-0.4-1.3-1-1.3-1.8c0-0.7,0.3-1.2,0.8-1.6c0.6-0.4,1.3-0.7,2.1-0.7c0.9,0,1.6,0.2,2.2,0.7c0.6,0.4,0.8,1,0.8,1.7h-1.7
			c0-0.3-0.1-0.6-0.4-0.8c-0.2-0.2-0.6-0.3-1-0.3c-0.4,0-0.7,0.1-0.9,0.3c-0.2,0.2-0.4,0.4-0.4,0.7c0,0.3,0.1,0.5,0.3,0.6
			s0.7,0.3,1.3,0.4c0.7,0.1,1.2,0.3,1.6,0.5s0.7,0.4,0.8,0.7c0.2,0.3,0.3,0.6,0.3,1c0,0.7-0.3,1.2-0.8,1.7s-1.3,0.6-2.2,0.6
			c-0.6,0-1.2-0.1-1.7-0.3c-0.5-0.2-0.9-0.5-1.1-0.9c-0.3-0.4-0.4-0.8-0.4-1.3h1.7c0,0.4,0.2,0.7,0.5,0.9s0.7,0.3,1.1,0.3
			c0.4,0,0.8-0.1,1-0.3C162.7,143,162.8,142.8,162.8,142.5z"/>
	</g>
	<g class="st4">
		<path class="st3" d="M153.6,134.3h-0.8l1.1-6.5h0.8L153.6,134.3z"/>
		<path class="st3" d="M155.7,134.3h-0.8l0.8-4.5h0.8L155.7,134.3z M156.3,128.1c0.1,0,0.2,0,0.3,0.1c0.1,0.1,0.1,0.2,0.1,0.3
			c0,0.1,0,0.2-0.1,0.3c-0.1,0.1-0.2,0.1-0.3,0.1s-0.2,0-0.3-0.1c-0.1-0.1-0.1-0.2-0.1-0.3c0-0.1,0-0.2,0.1-0.3
			S156.2,128.1,156.3,128.1z"/>
	</g>
	<g class="st4">
		<path class="st3" d="M157.3,134.3l0.7-3.9h-0.7l0.1-0.6h0.7l0.1-0.5c0.1-0.5,0.3-0.8,0.5-1.1c0.3-0.3,0.7-0.4,1.1-0.4
			c0.1,0,0.3,0,0.5,0.1l-0.1,0.6c-0.1,0-0.3,0-0.4-0.1c-0.3,0-0.5,0.1-0.6,0.2c-0.2,0.2-0.3,0.4-0.3,0.7l-0.1,0.4h0.9l-0.1,0.6h-0.9
			l-0.7,3.9H157.3z"/>
	</g>
	<g class="st4">
		<path class="st3" d="M161.7,134.4c-0.6,0-1-0.2-1.3-0.6s-0.5-0.9-0.4-1.6l0-0.2c0-0.5,0.2-0.9,0.4-1.2c0.2-0.4,0.5-0.7,0.8-0.8
			c0.3-0.2,0.7-0.3,1-0.3c0.5,0,0.8,0.2,1.1,0.5s0.4,0.7,0.4,1.2c0,0.2,0,0.4,0,0.5l0,0.3h-3c-0.1,0.4,0,0.8,0.2,1.1
			c0.2,0.3,0.5,0.4,0.8,0.5c0.4,0,0.9-0.2,1.2-0.6l0.4,0.4c-0.2,0.3-0.4,0.5-0.7,0.6C162.4,134.3,162.1,134.4,161.7,134.4z
			 M162.2,130.3c-0.3,0-0.6,0.1-0.8,0.3c-0.2,0.2-0.4,0.6-0.6,1l2.2,0l0-0.1c0-0.4,0-0.6-0.2-0.9
			C162.7,130.5,162.5,130.3,162.2,130.3z"/>
	</g>
	<g>
		<defs>
			<rect id="SVGID_1_" x="90.3" y="116.4" width="18.9" height="28.3"/>
		</defs>
		<clipPath id="SVGID_2_">
			<use xlink:href="#SVGID_1_"  style="overflow:visible;"/>
		</clipPath>
		<g class="st5">
			<path class="st3" d="M102.2,114.6v13.7c0.6-0.9,1.2-1.7,2-2.4c1.6-1.6,3-2.6,3.3-2.3s-0.8,1.8-2.3,3.3c-0.6,0.6-1.1,1.1-1.6,1.5
				l0.4-0.2c1.3-0.5,2.3-0.7,2.4-0.5s-0.9,0.8-2.1,1.3c-0.7,0.3-1.4,0.5-2.1,0.5v17h7.1v-31.8H102.2z"/>
			<path class="st3" d="M94.3,135.3c-1.6-1.6-2.6-3-2.3-3.3s1.8,0.8,3.3,2.3c0.8,0.8,1.5,1.6,2.1,2.6v-22.2h-7.1v31.9h7.1v-8.9
				C96.2,137.1,95.2,136.3,94.3,135.3z"/>
		</g>
	</g>
</g>
<g>
	<path class="st3" d="M175.6,203.6v-6.8h2.2c0.6,0,1.2,0.1,1.7,0.4c0.5,0.3,0.9,0.6,1.2,1.1s0.4,1.1,0.4,1.7v0.3
		c0,0.6-0.1,1.2-0.4,1.7c-0.3,0.5-0.7,0.9-1.2,1.1c-0.5,0.3-1.1,0.4-1.7,0.4H175.6z M177,197.9v4.5h0.7c0.6,0,1-0.2,1.3-0.5
		c0.3-0.4,0.5-0.9,0.5-1.5V200c0-0.7-0.2-1.2-0.4-1.6c-0.3-0.4-0.7-0.5-1.3-0.5H177z"/>
	<path class="st3" d="M183.6,203.6h-1.5v-6.8h1.5V203.6z"/>
	<path class="st3" d="M188.7,201.8c0-0.3-0.1-0.5-0.3-0.6c-0.2-0.1-0.5-0.3-1.1-0.4s-0.9-0.3-1.2-0.5c-0.8-0.4-1.2-1-1.2-1.7
		c0-0.4,0.1-0.7,0.3-1c0.2-0.3,0.5-0.5,0.9-0.7c0.4-0.2,0.9-0.2,1.4-0.2c0.5,0,1,0.1,1.4,0.3c0.4,0.2,0.7,0.4,0.9,0.7
		c0.2,0.3,0.3,0.7,0.3,1.1h-1.5c0-0.3-0.1-0.5-0.3-0.7c-0.2-0.2-0.5-0.3-0.9-0.3c-0.4,0-0.6,0.1-0.8,0.2c-0.2,0.1-0.3,0.3-0.3,0.6
		c0,0.2,0.1,0.4,0.3,0.6c0.2,0.1,0.6,0.3,1,0.4c0.8,0.2,1.4,0.5,1.8,0.9s0.6,0.8,0.6,1.3c0,0.6-0.2,1-0.7,1.4
		c-0.5,0.3-1.1,0.5-1.9,0.5c-0.5,0-1-0.1-1.5-0.3c-0.4-0.2-0.8-0.5-1-0.8c-0.2-0.3-0.4-0.7-0.4-1.2h1.5c0,0.7,0.5,1.1,1.4,1.1
		c0.3,0,0.6-0.1,0.8-0.2C188.6,202.2,188.7,202,188.7,201.8z"/>
	<path class="st3" d="M192.6,201.2v2.4h-1.5v-6.8h2.8c0.5,0,1,0.1,1.4,0.3c0.4,0.2,0.7,0.4,0.9,0.8c0.2,0.3,0.3,0.7,0.3,1.2
		c0,0.7-0.2,1.2-0.7,1.6c-0.5,0.4-1.1,0.6-2,0.6H192.6z M192.6,200h1.3c0.4,0,0.7-0.1,0.9-0.3c0.2-0.2,0.3-0.4,0.3-0.7
		c0-0.3-0.1-0.6-0.3-0.8c-0.2-0.2-0.5-0.3-0.9-0.3h-1.3V200z"/>
	<path class="st3" d="M203.4,200.3c0,0.7-0.1,1.3-0.4,1.8c-0.2,0.5-0.6,0.9-1.1,1.2c-0.5,0.3-1,0.4-1.6,0.4c-0.6,0-1.1-0.1-1.6-0.4
		s-0.8-0.7-1.1-1.2c-0.3-0.5-0.4-1.1-0.4-1.7V200c0-0.7,0.1-1.3,0.4-1.8c0.3-0.5,0.6-0.9,1.1-1.2c0.5-0.3,1-0.4,1.6-0.4
		c0.6,0,1.1,0.1,1.6,0.4s0.8,0.7,1.1,1.2c0.3,0.5,0.4,1.1,0.4,1.8V200.3z M202,200c0-0.7-0.1-1.2-0.4-1.6s-0.6-0.6-1.1-0.6
		c-0.5,0-0.9,0.2-1.1,0.5s-0.4,0.9-0.4,1.6v0.3c0,0.7,0.1,1.2,0.4,1.6c0.3,0.4,0.7,0.6,1.2,0.6c0.5,0,0.9-0.2,1.1-0.5
		s0.4-0.9,0.4-1.6V200z"/>
	<path class="st3" d="M208.2,201.8c0-0.3-0.1-0.5-0.3-0.6c-0.2-0.1-0.5-0.3-1.1-0.4s-0.9-0.3-1.2-0.5c-0.8-0.4-1.2-1-1.2-1.7
		c0-0.4,0.1-0.7,0.3-1c0.2-0.3,0.5-0.5,0.9-0.7c0.4-0.2,0.9-0.2,1.4-0.2c0.5,0,1,0.1,1.4,0.3c0.4,0.2,0.7,0.4,0.9,0.7
		c0.2,0.3,0.3,0.7,0.3,1.1h-1.5c0-0.3-0.1-0.5-0.3-0.7c-0.2-0.2-0.5-0.3-0.9-0.3c-0.4,0-0.6,0.1-0.8,0.2c-0.2,0.1-0.3,0.3-0.3,0.6
		c0,0.2,0.1,0.4,0.3,0.6c0.2,0.1,0.6,0.3,1,0.4c0.8,0.2,1.4,0.5,1.8,0.9s0.6,0.8,0.6,1.3c0,0.6-0.2,1-0.7,1.4
		c-0.5,0.3-1.1,0.5-1.9,0.5c-0.5,0-1-0.1-1.5-0.3c-0.4-0.2-0.8-0.5-1-0.8c-0.2-0.3-0.4-0.7-0.4-1.2h1.5c0,0.7,0.5,1.1,1.4,1.1
		c0.3,0,0.6-0.1,0.8-0.2C208.1,202.2,208.2,202,208.2,201.8z"/>
	<g class="st4">
		<path class="st3" d="M212.2,203.6h-1.5v-6.8h1.5V203.6z"/>
	</g>
	<path class="st3" d="M218.8,197.9h-2.2v5.6h-1.5v-5.6H213v-1.1h5.8V197.9z"/>
	<path class="st3" d="M221.2,203.6h-1.5v-6.8h1.5V203.6z"/>
	<g class="st4">
		<path class="st3" d="M225.2,201.9l1.6-5.1h1.6l-2.5,6.8h-1.5l-2.5-6.8h1.6L225.2,201.9z"/>
	</g>
	<g class="st4">
		<path class="st3" d="M234.9,200.3c0,0.7-0.1,1.3-0.4,1.8s-0.6,0.9-1.1,1.2c-0.5,0.3-1,0.4-1.6,0.4c-0.6,0-1.1-0.1-1.6-0.4
			s-0.8-0.7-1.1-1.2c-0.3-0.5-0.4-1.1-0.4-1.7V200c0-0.7,0.1-1.3,0.4-1.8c0.3-0.5,0.6-0.9,1.1-1.2s1-0.4,1.6-0.4s1.1,0.1,1.6,0.4
			s0.8,0.7,1.1,1.2c0.3,0.5,0.4,1.1,0.4,1.8V200.3z M233.4,200c0-0.7-0.1-1.2-0.4-1.6s-0.6-0.6-1.1-0.6c-0.5,0-0.9,0.2-1.1,0.5
			c-0.3,0.4-0.4,0.9-0.4,1.6v0.3c0,0.7,0.1,1.2,0.4,1.6s0.7,0.6,1.2,0.6c0.5,0,0.9-0.2,1.1-0.5s0.4-0.9,0.4-1.6V200z"/>
	</g>
	<line class="st6" x1="201.1" y1="175.3" x2="201.1" y2="178.8"/>
	<path class="st3" d="M226.6,156.1c-0.1,0.9-0.5,1.7-1,2.4c-1.4,1.8-3.1,3.4-5.1,4.8c-2.1-1.4-4-3.2-5.4-5.4
		c-0.6-0.8-0.8-1.8-0.6-2.8c0.2-1.5,1.6-2.6,3.1-2.5c0.1,0,0.2,0,0.4,0.1c1,0.2,1.9,0.7,2.6,1.4c0.7-0.7,1.6-1.2,2.5-1.4
		c1.5-0.4,3.1,0.5,3.5,2.1C226.7,155.2,226.7,155.6,226.6,156.1z"/>
	<path class="st3" d="M206.9,144.3c0.1,0,0.2,0.1,0.3,0.1c1.1,0.2,1.8,1.2,1.7,2.3c0,7.1,0,14.3,0,21.4c0,1.2-0.8,2.2-1.9,2.4h-11.5
		c-0.1,0-0.2-0.1-0.3-0.1c-1.1-0.2-1.8-1.2-1.7-2.3v-21.4c0-1.2,0.8-2.2,2-2.4H206.9z M207.6,147.3h-13v18.9h13V147.3z M202.3,168.3
		c0-0.7-0.5-1.2-1.2-1.2c-0.7,0-1.2,0.5-1.2,1.2c0,0.7,0.5,1.2,1.2,1.2c0,0,0,0,0,0C201.8,169.5,202.3,168.9,202.3,168.3
		C202.3,168.3,202.3,168.3,202.3,168.3L202.3,168.3z M201.2,145.6c-0.9,0-1.7,0-2.6,0c-0.2,0-0.3,0.2-0.5,0.3
		c0.1,0.1,0.3,0.3,0.5,0.3c1.7,0,3.3,0,5,0c0.1,0,0.3-0.2,0.5-0.3c-0.2-0.1-0.3-0.3-0.5-0.3C202.8,145.5,202,145.5,201.2,145.6
		L201.2,145.6z"/>
	<rect x="200.1" y="172.2" class="st3" width="2.1" height="3.1"/>
	<rect x="200.5" y="171.3" class="st3" width="1.2" height="0.9"/>
	<line class="st6" x1="220.5" y1="163.2" x2="220.5" y2="179.6"/>
	<path class="st7" d="M201.1,178.8c0.4,3.6,5,6.4,10.2,6.2c4.8-0.1,8.8-2.8,9.2-6.2"/>
	<path class="st8" d="M194.4,156.8h4l1.6-3c0.5,2.4,0.9,4.7,1.4,7.1l1.1-3.9l5.2-0.2"/>
</g>
</svg>
