<svg xmlns="http://www.w3.org/2000/svg" viewBox="0 0 21.04 25.33"><defs><style>.cls-1{fill:#7db4d8;}</style></defs><g id="Capa_2" data-name="Capa 2"><g id="productos_y_servicios" data-name="productos y servicios"><g id="Capa_19" data-name="Capa 19"><path class="cls-1" d="M4.43,6.11A6.1,6.1,0,1,1,10.5,12.2,6.08,6.08,0,0,1,4.43,6.11Z"/><path class="cls-1" d="M21,24.58c-.05-.91,0-1.83,0-2.74a6.61,6.61,0,0,0-3.26-5.9,12.48,12.48,0,0,0-6.49-1.8,14.27,14.27,0,0,0-7.55,1.47A6.6,6.6,0,0,0,0,21.73c0,1,0,1.95,0,2.93,0,.55.18.67.7.67,3.27,0,6.54,0,9.8,0s6.54,0,9.81,0C20.91,25.34,21.07,25.15,21,24.58ZM18,20a2.67,2.67,0,0,1-.53,1.22,11.31,11.31,0,0,1-2.61,2.46A9.84,9.84,0,0,1,13,22.07a10.66,10.66,0,0,1-1-1.18,2,2,0,0,1-.34-1.47,1.46,1.46,0,0,1,1.8-1.24,2.52,2.52,0,0,1,1.35.74,2.6,2.6,0,0,1,1.31-.73A1.49,1.49,0,0,1,18,20Z"/></g></g></g></svg>