<?xml version="1.0"?>
<svg xmlns="http://www.w3.org/2000/svg" viewBox="0 0 191.33 39.07">
  <defs>
    <style>.cls-1{fill:#89b0dc;}.cls-2{fill:#3f443f;}</style>
  </defs>
  <g id="Capa_2">
    <g id="chatbot">
      <path class="cls-1" d="M47.13,34.07l-1.2,1.18v3h-.72V29.78h.72v4.6l1.16-1.22,3.2-3.38h.91l-3.57,3.79,3.85,4.73H50.6Z"/>
      <path class="cls-1" d="M53.14,32l0,1.08a3.05,3.05,0,0,1,.38-.49,2.23,2.23,0,0,1,.48-.38,2.56,2.56,0,0,1,.56-.24,2.32,2.32,0,0,1,.65-.09,2.81,2.81,0,0,1,.85.13,1.5,1.5,0,0,1,.63.41,1.93,1.93,0,0,1,.4.72,3.75,3.75,0,0,1,.14,1.07V38.3h-.7V34.18a2.43,2.43,0,0,0-.11-.82,1.41,1.41,0,0,0-.29-.53,1.08,1.08,0,0,0-.47-.28,2.06,2.06,0,0,0-.62-.09,1.65,1.65,0,0,0-.68.13,1.87,1.87,0,0,0-.54.33,2.09,2.09,0,0,0-.4.49,2.22,2.22,0,0,0-.27.56V38.3h-.7V32Z"/>
      <path class="cls-1" d="M58.67,35a4,4,0,0,1,.2-1.27,2.86,2.86,0,0,1,.57-1,2.55,2.55,0,0,1,.89-.67,2.74,2.74,0,0,1,1.16-.24,2.78,2.78,0,0,1,1.17.24,2.46,2.46,0,0,1,.89.67,2.86,2.86,0,0,1,.57,1,4,4,0,0,1,.2,1.27v.2a4,4,0,0,1-.2,1.27,2.86,2.86,0,0,1-.57,1,2.56,2.56,0,0,1-.89.66,2.78,2.78,0,0,1-3.22-.66,3,3,0,0,1-.57-1,4,4,0,0,1-.2-1.27Zm.7.2a3.64,3.64,0,0,0,.14,1,2.43,2.43,0,0,0,.41.82,1.94,1.94,0,0,0,.67.57,2.08,2.08,0,0,0,1.82,0,2,2,0,0,0,.66-.57,2.43,2.43,0,0,0,.41-.82,3.29,3.29,0,0,0,.14-1V35a3.23,3.23,0,0,0-.14-1,2.58,2.58,0,0,0-.41-.83,2.18,2.18,0,0,0-.67-.57,1.91,1.91,0,0,0-.91-.21,1.94,1.94,0,0,0-.91.21,2.27,2.27,0,0,0-.66.57,2.58,2.58,0,0,0-.41.83,3.57,3.57,0,0,0-.14,1Z"/>
      <path class="cls-1" d="M67.28,36.84l.11.55.14-.57L69.05,32h.6l1.5,4.8.16.67.14-.61L72.75,32h.72L71.63,38.3H71l-1.62-5-.08-.34-.08.35-1.59,5h-.6L65.22,32h.72Z"/>
      <path class="cls-1" d="M78.59,36.69a1.26,1.26,0,0,0-.06-.38,1,1,0,0,0-.26-.37,2,2,0,0,0-.51-.32,4,4,0,0,0-.86-.26A8.35,8.35,0,0,1,76,35.1a2.62,2.62,0,0,1-.69-.35,1.36,1.36,0,0,1-.43-.5,1.41,1.41,0,0,1-.15-.67,1.56,1.56,0,0,1,.15-.67,1.82,1.82,0,0,1,.45-.55A2.32,2.32,0,0,1,76,32a3,3,0,0,1,.93-.14,3,3,0,0,1,1,.15,2.16,2.16,0,0,1,.74.39,1.67,1.67,0,0,1,.46.6,1.71,1.71,0,0,1,.16.75h-.7a1.2,1.2,0,0,0-.11-.48,1.24,1.24,0,0,0-.32-.41,1.79,1.79,0,0,0-.51-.29,2.19,2.19,0,0,0-.7-.11,2.07,2.07,0,0,0-.7.1,1.4,1.4,0,0,0-.47.26.81.81,0,0,0-.27.35.93.93,0,0,0-.09.4,1,1,0,0,0,.07.38.77.77,0,0,0,.24.32,2.25,2.25,0,0,0,.52.28c.22.08.51.16.86.25a6.22,6.22,0,0,1,1,.29,2.5,2.5,0,0,1,.69.39,1.43,1.43,0,0,1,.4.52,1.54,1.54,0,0,1,.13.67,1.51,1.51,0,0,1-.16.71,1.49,1.49,0,0,1-.47.56,2.49,2.49,0,0,1-.73.36,3.3,3.3,0,0,1-1,.13,3.21,3.21,0,0,1-1.07-.16,2.45,2.45,0,0,1-.77-.41,1.85,1.85,0,0,1-.48-.61,1.63,1.63,0,0,1-.16-.71h.7a1.26,1.26,0,0,0,.19.62,1.45,1.45,0,0,0,.42.4,1.8,1.8,0,0,0,.56.21,2.6,2.6,0,0,0,.61.07,2.15,2.15,0,0,0,.7-.1,1.43,1.43,0,0,0,.51-.25,1,1,0,0,0,.32-.36A.94.94,0,0,0,78.59,36.69Z"/>
      <path class="cls-1" d="M86.45,34.43l2.6-4.65h.83L86.8,35.09V38.3h-.72V35.09L83,29.78h.85Z"/>
      <path class="cls-1" d="M90.19,35a4,4,0,0,1,.2-1.27,3.2,3.2,0,0,1,.57-1,2.55,2.55,0,0,1,.89-.67A2.74,2.74,0,0,1,93,31.85a2.78,2.78,0,0,1,1.17.24,2.59,2.59,0,0,1,.9.67,3,3,0,0,1,.56,1,3.72,3.72,0,0,1,.2,1.27v.2a3.72,3.72,0,0,1-.2,1.27,3,3,0,0,1-.56,1,2.66,2.66,0,0,1-2.06.9,2.7,2.7,0,0,1-2.06-.9,3.2,3.2,0,0,1-.57-1,4,4,0,0,1-.2-1.27Zm.7.2a3.64,3.64,0,0,0,.14,1,2.63,2.63,0,0,0,.41.82,1.94,1.94,0,0,0,.67.57,2.08,2.08,0,0,0,1.82,0,2,2,0,0,0,.67-.57,2.86,2.86,0,0,0,.41-.82,3.64,3.64,0,0,0,.14-1V35a3.57,3.57,0,0,0-.14-1,3.06,3.06,0,0,0-.41-.83,2.31,2.31,0,0,0-.67-.57,2,2,0,0,0-.92-.21,1.87,1.87,0,0,0-.9.21,2.18,2.18,0,0,0-.67.57,2.8,2.8,0,0,0-.41.83,3.57,3.57,0,0,0-.14,1Z"/>
      <path class="cls-1" d="M101.36,37.5a2.09,2.09,0,0,1-.79.68,2.81,2.81,0,0,1-1.23.24,2.86,2.86,0,0,1-.85-.13,1.66,1.66,0,0,1-.65-.42,1.86,1.86,0,0,1-.43-.74,3.52,3.52,0,0,1-.15-1.1V32H98V36a2.6,2.6,0,0,0,.12.85,1.42,1.42,0,0,0,.31.54,1.16,1.16,0,0,0,.47.29,1.73,1.73,0,0,0,.56.09,2.86,2.86,0,0,0,.75-.09,1.77,1.77,0,0,0,.55-.27,1.45,1.45,0,0,0,.39-.39,2.17,2.17,0,0,0,.24-.51V32h.7V38.3h-.68Z"/>
      <path class="cls-1" d="M106.8,32.57a2.45,2.45,0,0,0-.48,0,1.83,1.83,0,0,0-.64.1,1.63,1.63,0,0,0-.51.3,1.65,1.65,0,0,0-.37.45,2.06,2.06,0,0,0-.23.57V38.3h-.7V32h.68l0,1a2,2,0,0,1,.7-.82,1.79,1.79,0,0,1,1.08-.31,1.15,1.15,0,0,1,.26,0,.64.64,0,0,1,.2.05Z"/>
      <path class="cls-1" d="M117.29,38.3h-.72V34.22H111.7V38.3H111V29.78h.72v3.83h4.87V29.78h.72Z"/>
      <path class="cls-1" d="M121.75,38.42a2.8,2.8,0,0,1-1.14-.23,2.67,2.67,0,0,1-.9-.65,2.92,2.92,0,0,1-.59-1,3.51,3.51,0,0,1-.21-1.24v-.25a3.75,3.75,0,0,1,.22-1.33,3,3,0,0,1,.59-1,2.68,2.68,0,0,1,.86-.65,2.47,2.47,0,0,1,1-.23,2.59,2.59,0,0,1,1.07.22,2.34,2.34,0,0,1,.79.6,2.78,2.78,0,0,1,.48.92,3.94,3.94,0,0,1,.16,1.17v.42H119.6v.14a3.19,3.19,0,0,0,.16,1,2.72,2.72,0,0,0,.45.8,2.19,2.19,0,0,0,.68.53,2,2,0,0,0,.89.2,2.25,2.25,0,0,0,1-.21,2.22,2.22,0,0,0,.78-.65l.44.33a3,3,0,0,1-.37.43,2.15,2.15,0,0,1-.48.36,2.67,2.67,0,0,1-.62.24A3.07,3.07,0,0,1,121.75,38.42Zm-.13-6a1.81,1.81,0,0,0-.74.15,1.73,1.73,0,0,0-.6.44,2.27,2.27,0,0,0-.43.67,3.34,3.34,0,0,0-.22.88h3.8v-.08a3.26,3.26,0,0,0-.13-.77,2.08,2.08,0,0,0-.35-.66,1.76,1.76,0,0,0-.55-.46A1.79,1.79,0,0,0,121.62,32.45Z"/>
      <path class="cls-1" d="M129.48,38.3a1.83,1.83,0,0,1-.09-.4c0-.16,0-.32,0-.48a2.73,2.73,0,0,1-.38.38,2,2,0,0,1-.48.32,3.43,3.43,0,0,1-.59.22,3.13,3.13,0,0,1-.7.08,2.47,2.47,0,0,1-.84-.14,1.83,1.83,0,0,1-.64-.37,1.79,1.79,0,0,1-.42-.57,1.89,1.89,0,0,1-.14-.72,1.65,1.65,0,0,1,.2-.83,1.71,1.71,0,0,1,.57-.63,2.62,2.62,0,0,1,.91-.4,4.94,4.94,0,0,1,1.2-.14h1.3V33.9a1.39,1.39,0,0,0-.42-1.07,1.72,1.72,0,0,0-1.22-.39,2.48,2.48,0,0,0-.68.1,1.78,1.78,0,0,0-.53.28,1.24,1.24,0,0,0-.35.41.92.92,0,0,0-.13.49h-.7a1.48,1.48,0,0,1,.18-.69,1.82,1.82,0,0,1,.49-.59,2.69,2.69,0,0,1,.77-.42,3.07,3.07,0,0,1,1-.16,3.48,3.48,0,0,1,.93.13,2.08,2.08,0,0,1,.72.39,1.72,1.72,0,0,1,.48.64,2.29,2.29,0,0,1,.17.9V37c0,.11,0,.22,0,.34s0,.23,0,.34l.06.31a1.34,1.34,0,0,0,.08.26v.07Zm-2.2-.5a2.3,2.3,0,0,0,.71-.1,2.41,2.41,0,0,0,.59-.26A2.47,2.47,0,0,0,129,37a1.93,1.93,0,0,0,.31-.49V35.16h-1.2a4,4,0,0,0-1,.1,2.35,2.35,0,0,0-.72.27A1.26,1.26,0,0,0,126,36a1.06,1.06,0,0,0-.16.58,1.13,1.13,0,0,0,.1.49,1.21,1.21,0,0,0,.28.39,1.33,1.33,0,0,0,.45.26A1.59,1.59,0,0,0,127.28,37.8Z"/>
      <path class="cls-1" d="M134.83,32.57a2.42,2.42,0,0,0-.47,0,1.89,1.89,0,0,0-.65.1,1.71,1.71,0,0,0-.87.75,2.44,2.44,0,0,0-.24.57V38.3h-.7V32h.69v1a2.09,2.09,0,0,1,.7-.82,1.82,1.82,0,0,1,1.09-.31l.26,0a.64.64,0,0,1,.2.05Z"/>
      <path class="cls-1" d="M137.32,30.35V32h1.31v.57h-1.31v4.22a1.61,1.61,0,0,0,.07.54.67.67,0,0,0,.18.31.54.54,0,0,0,.26.16,1.94,1.94,0,0,0,.62,0l.26,0,0,.57a2,2,0,0,1-.34.07,2.73,2.73,0,0,1-.41,0,1.92,1.92,0,0,1-.55-.08,1,1,0,0,1-.44-.27,1.38,1.38,0,0,1-.28-.51,2.64,2.64,0,0,1-.1-.8V32.54h-1.17V32h1.17V30.35Z"/>
      <path class="cls-2" d="M14.31,16.65a8.4,8.4,0,0,1-.69,2.62,5.79,5.79,0,0,1-1.42,2,6.07,6.07,0,0,1-2.13,1.24,8.92,8.92,0,0,1-2.84.43,6.87,6.87,0,0,1-3-.63A6.43,6.43,0,0,1,2,20.52,8.26,8.26,0,0,1,.51,17.78,11.55,11.55,0,0,1,0,14.24V11.83A11.6,11.6,0,0,1,.51,8.29,8,8,0,0,1,2,5.55,6.58,6.58,0,0,1,4.3,3.78a7.36,7.36,0,0,1,3.05-.62,8.51,8.51,0,0,1,2.76.42,5.9,5.9,0,0,1,2.11,1.23,6.24,6.24,0,0,1,1.41,2,8.25,8.25,0,0,1,.68,2.65H12.67a7.55,7.55,0,0,0-.53-2.08,4.53,4.53,0,0,0-1-1.54,4.43,4.43,0,0,0-1.59-1,6.47,6.47,0,0,0-2.17-.33A5.46,5.46,0,0,0,5,5.06,5.1,5.1,0,0,0,3.16,6.54,6.55,6.55,0,0,0,2,8.83a10.57,10.57,0,0,0-.39,3v2.44A10.83,10.83,0,0,0,2,17.17a6.85,6.85,0,0,0,1.08,2.31A5,5,0,0,0,4.84,21a5.16,5.16,0,0,0,2.39.54,5.46,5.46,0,0,0,3.85-1.22,5.82,5.82,0,0,0,1.59-3.66Z"/>
      <path class="cls-2" d="M26.9,22.64a5.54,5.54,0,0,1-.2-.9c-.05-.36-.08-.72-.1-1.09a5.36,5.36,0,0,1-.85.87,5.53,5.53,0,0,1-1.09.71,6.76,6.76,0,0,1-1.33.49,6.56,6.56,0,0,1-1.57.19,5.69,5.69,0,0,1-1.9-.31,4.09,4.09,0,0,1-1.45-.85,3.84,3.84,0,0,1-.93-1.29A4.12,4.12,0,0,1,17.6,17a4.06,4.06,0,0,1,1.29-1.42,6,6,0,0,1,2.05-.9,10.82,10.82,0,0,1,2.72-.31h2.93V12.71a3.14,3.14,0,0,0-.95-2.41,3.91,3.91,0,0,0-2.75-.87,5,5,0,0,0-1.53.22,3.94,3.94,0,0,0-1.21.62,3,3,0,0,0-.79.92,2.29,2.29,0,0,0-.28,1.11H17.49a3.29,3.29,0,0,1,.4-1.56A4.37,4.37,0,0,1,19,9.39a5.84,5.84,0,0,1,1.73-.94A6.66,6.66,0,0,1,23,8.09a7.28,7.28,0,0,1,2.09.29,4.66,4.66,0,0,1,1.65.88,4,4,0,0,1,1.07,1.45,5.1,5.1,0,0,1,.38,2v6.92c0,.24,0,.5,0,.76s.05.52.09.77.09.48.14.71a3.33,3.33,0,0,0,.18.58v.16Zm-5-1.13a5.76,5.76,0,0,0,1.59-.22,5.56,5.56,0,0,0,1.33-.6,4.93,4.93,0,0,0,1-.89,4.61,4.61,0,0,0,.7-1.11V15.55H23.88a9.54,9.54,0,0,0-2.17.22,5.22,5.22,0,0,0-1.62.63,3,3,0,0,0-1,1,2.62,2.62,0,0,0-.35,1.33A2.66,2.66,0,0,0,19,19.81a2.53,2.53,0,0,0,.64.88,3,3,0,0,0,1,.6A3.94,3.94,0,0,0,21.94,21.51Z"/>
      <path class="cls-2" d="M39,9.7a6.1,6.1,0,0,0-1.07-.09,4.12,4.12,0,0,0-1.45.24,3.61,3.61,0,0,0-1.14.67,3.93,3.93,0,0,0-.84,1,5.8,5.8,0,0,0-.53,1.3v9.81H32.37V8.36h1.54l0,2.27a4.73,4.73,0,0,1,1.58-1.86A4.26,4.26,0,0,1,38,8.09a3,3,0,0,1,.59.06,2.09,2.09,0,0,1,.45.11Z"/>
      <path class="cls-2" d="M40.58,15.37a11.21,11.21,0,0,1,.38-3,7.07,7.07,0,0,1,1.1-2.29,4.85,4.85,0,0,1,1.73-1.46,5,5,0,0,1,2.31-.52,5.29,5.29,0,0,1,2.6.61,5.19,5.19,0,0,1,1.81,1.68v-8h1.57V22.64H50.6l-.07-1.9a5,5,0,0,1-1.81,1.59,5.73,5.73,0,0,1-2.65.58,4.77,4.77,0,0,1-2.28-.54,5,5,0,0,1-1.73-1.49A7.07,7.07,0,0,1,41,18.59a10.87,10.87,0,0,1-.38-2.95Zm1.6.27A10,10,0,0,0,42.43,18a5.74,5.74,0,0,0,.76,1.87,3.84,3.84,0,0,0,1.3,1.24,3.72,3.72,0,0,0,1.87.45,5.11,5.11,0,0,0,1.46-.19,4,4,0,0,0,2-1.35,5.73,5.73,0,0,0,.64-1V12.25a7.07,7.07,0,0,0-.58-1,3.77,3.77,0,0,0-.85-.89,3.9,3.9,0,0,0-1.16-.62,4.48,4.48,0,0,0-1.53-.23,3.78,3.78,0,0,0-1.89.45,3.91,3.91,0,0,0-1.31,1.25A5.74,5.74,0,0,0,42.43,13a10.21,10.21,0,0,0-.25,2.33Z"/>
      <path class="cls-2" d="M56.14,4.23a1.07,1.07,0,0,1,.29-.76,1,1,0,0,1,.8-.31,1,1,0,0,1,.79.31,1,1,0,0,1,.3.76A1,1,0,0,1,58,5a1,1,0,0,1-.79.3,1,1,0,0,1-1.09-1ZM58,22.64H56.42V8.36H58Z"/>
      <path class="cls-2" d="M61.42,15.29a8.87,8.87,0,0,1,.46-2.88,6.7,6.7,0,0,1,1.29-2.28,5.92,5.92,0,0,1,2-1.49,6.56,6.56,0,0,1,5.26,0,6,6,0,0,1,2,1.49,6.85,6.85,0,0,1,1.28,2.28,8.87,8.87,0,0,1,.45,2.88v.43a8.87,8.87,0,0,1-.45,2.88,6.85,6.85,0,0,1-1.28,2.28,5.93,5.93,0,0,1-2,1.49,6.65,6.65,0,0,1-5.25,0,5.87,5.87,0,0,1-2-1.49,6.7,6.7,0,0,1-1.29-2.28,8.87,8.87,0,0,1-.46-2.88Zm1.59.43A7.82,7.82,0,0,0,63.32,18a5.8,5.8,0,0,0,.93,1.86,4.51,4.51,0,0,0,1.5,1.28,4.42,4.42,0,0,0,5.61-1.28A5.6,5.6,0,0,0,72.29,18a7.82,7.82,0,0,0,.31-2.24v-.43a7.71,7.71,0,0,0-.31-2.21,5.75,5.75,0,0,0-.93-1.87,4.39,4.39,0,0,0-1.51-1.29,4.32,4.32,0,0,0-2.06-.48,4.21,4.21,0,0,0-2,.48,4.45,4.45,0,0,0-1.5,1.29,6,6,0,0,0-.93,1.87A7.71,7.71,0,0,0,63,15.29Z"/>
      <path class="cls-2" d="M88.68,17.92a3.66,3.66,0,0,0-.25-1.41,3.05,3.05,0,0,0-.88-1.12,6.16,6.16,0,0,0-1.61-.93,20.17,20.17,0,0,0-2.51-.85,22.63,22.63,0,0,1-2.61-.89,8.1,8.1,0,0,1-2-1.13,4.63,4.63,0,0,1-1.25-1.49,4.13,4.13,0,0,1-.44-2,4.27,4.27,0,0,1,.47-2A4.62,4.62,0,0,1,79,4.54a6.46,6.46,0,0,1,2-1,8.93,8.93,0,0,1,2.6-.36,7.87,7.87,0,0,1,2.74.45,6.12,6.12,0,0,1,2.08,1.22A5.38,5.38,0,0,1,90.2,8.9H88.57a4.54,4.54,0,0,0-.34-1.74,3.9,3.9,0,0,0-1-1.38,4.59,4.59,0,0,0-1.56-.91,6.23,6.23,0,0,0-2.11-.33,6.94,6.94,0,0,0-2.09.29A4.65,4.65,0,0,0,80,5.59a3.27,3.27,0,0,0-.91,1.13,3.23,3.23,0,0,0-.31,1.37A3.13,3.13,0,0,0,79,9.36a2.89,2.89,0,0,0,.87,1.08,6.47,6.47,0,0,0,1.59.92,16.55,16.55,0,0,0,2.44.81,20.79,20.79,0,0,1,2.71.93,8.07,8.07,0,0,1,2,1.18,4.61,4.61,0,0,1,1.24,1.56,4.72,4.72,0,0,1,.42,2.05,4.4,4.4,0,0,1-.49,2.1,4.63,4.63,0,0,1-1.38,1.58,6.43,6.43,0,0,1-2.09,1,9.63,9.63,0,0,1-2.64.35A10,10,0,0,1,82,22.76a9.32,9.32,0,0,1-1.67-.44,7.21,7.21,0,0,1-1.49-.76,5.48,5.48,0,0,1-1.2-1.1,5,5,0,0,1-.8-1.47,5.34,5.34,0,0,1-.3-1.84h1.62a4,4,0,0,0,.5,2.05A4.1,4.1,0,0,0,80,20.55a5.34,5.34,0,0,0,1.78.75,8.92,8.92,0,0,0,2,.23,7.21,7.21,0,0,0,2-.26,4.84,4.84,0,0,0,1.57-.73,3.19,3.19,0,0,0,1-1.14A3.05,3.05,0,0,0,88.68,17.92Z"/>
      <path class="cls-2" d="M99,22.91a6.22,6.22,0,0,1-2.57-.53,5.9,5.9,0,0,1-2-1.45,6.72,6.72,0,0,1-1.33-2.21,8.16,8.16,0,0,1-.47-2.81v-.57a8.56,8.56,0,0,1,.49-3,7.12,7.12,0,0,1,1.34-2.28,6.09,6.09,0,0,1,2-1.46,5.36,5.36,0,0,1,2.33-.52,5.81,5.81,0,0,1,2.42.49,5.06,5.06,0,0,1,1.77,1.36A6,6,0,0,1,104,12a8.8,8.8,0,0,1,.37,2.63v1H94.15v.31a7,7,0,0,0,.35,2.21,5.64,5.64,0,0,0,1,1.8,4.78,4.78,0,0,0,1.54,1.21,4.55,4.55,0,0,0,2,.44,5.08,5.08,0,0,0,2.23-.46,5,5,0,0,0,1.77-1.48l1,.75a7,7,0,0,1-.83,1,4.76,4.76,0,0,1-1.09.81,6.09,6.09,0,0,1-1.4.54A7.17,7.17,0,0,1,99,22.91ZM98.69,9.44A4,4,0,0,0,97,9.78a4.33,4.33,0,0,0-1.36,1,5.11,5.11,0,0,0-1,1.53,7.39,7.39,0,0,0-.51,2h8.57v-.17a6.74,6.74,0,0,0-.29-1.74,4.63,4.63,0,0,0-.77-1.48,3.74,3.74,0,0,0-1.26-1A3.8,3.8,0,0,0,98.69,9.44Z"/>
      <path class="cls-2" d="M112.7,21.57a4.61,4.61,0,0,0,1.44-.22,3.66,3.66,0,0,0,1.24-.64,3.59,3.59,0,0,0,.89-1,3.41,3.41,0,0,0,.4-1.44h1.52a4.62,4.62,0,0,1-.51,1.88,4.73,4.73,0,0,1-1.2,1.47,5.71,5.71,0,0,1-1.72,1,6.19,6.19,0,0,1-2.06.35,6,6,0,0,1-2.64-.55,5.45,5.45,0,0,1-1.91-1.51A6.59,6.59,0,0,1,107,18.58a9.72,9.72,0,0,1-.39-2.8v-.56a9.67,9.67,0,0,1,.39-2.8,6.61,6.61,0,0,1,1.15-2.26,5.45,5.45,0,0,1,1.91-1.51,6,6,0,0,1,2.63-.56,6.2,6.2,0,0,1,2.14.36,5.26,5.26,0,0,1,1.71,1,4.84,4.84,0,0,1,1.17,1.6,5.68,5.68,0,0,1,.49,2.11h-1.52a4.21,4.21,0,0,0-.38-1.56,3.55,3.55,0,0,0-2.1-1.92,4.39,4.39,0,0,0-1.51-.26,4.18,4.18,0,0,0-2.08.48,4,4,0,0,0-1.39,1.28,5.44,5.44,0,0,0-.78,1.84,9.16,9.16,0,0,0-.25,2.18v.56a9.19,9.19,0,0,0,.25,2.19,5.6,5.6,0,0,0,.77,1.85,4,4,0,0,0,1.4,1.28A4.4,4.4,0,0,0,112.7,21.57Z"/>
      <path class="cls-2" d="M130.53,20.83a4.68,4.68,0,0,1-1.79,1.53,6.28,6.28,0,0,1-2.76.55,5.77,5.77,0,0,1-1.92-.3,3.7,3.7,0,0,1-1.48-.95,4.23,4.23,0,0,1-1-1.67,7.82,7.82,0,0,1-.34-2.48V8.36h1.57v9.17a6.14,6.14,0,0,0,.26,1.92,3.21,3.21,0,0,0,.72,1.22,2.53,2.53,0,0,0,1,.66,3.8,3.8,0,0,0,1.27.2,6.13,6.13,0,0,0,1.68-.21,4.13,4.13,0,0,0,1.25-.59,3.71,3.71,0,0,0,.87-.9,4.28,4.28,0,0,0,.54-1.14V8.36h1.59V22.64h-1.53Z"/>
      <path class="cls-2" d="M142.79,9.7a6,6,0,0,0-1.06-.09,4.18,4.18,0,0,0-1.46.24,3.61,3.61,0,0,0-1.14.67,3.71,3.71,0,0,0-.83,1,6.33,6.33,0,0,0-.54,1.3v9.81h-1.57V8.36h1.55l0,2.27a4.81,4.81,0,0,1,1.58-1.86,4.28,4.28,0,0,1,2.45-.68,3,3,0,0,1,.59.06,1.82,1.82,0,0,1,.45.11Z"/>
      <path class="cls-1" d="M191.29,8.06c-.42-.89-8.29,6.7-16.49,3.18C166.88,7.85,167.7.7,167.13.7s-1.27,2.71-.38,6.05,1.62,5.34-.51,6.79c-2.35,1.6-6.23-2.13-10.07-4.07-3.45-1.74-5.79-2.94-6.31-2.18s2.07.68,11.49,8.6c9.07,7.63,7.82,20.89,7.82,21.36s-.19,1.82.78,1.82c1.77,0-.11-14.88,5-20,4.46-4.46,7.46-4.85,10.55-6.32S191.71,8.94,191.29,8.06Zm-16.94,8a1.5,1.5,0,1,1,1.5-1.5A1.5,1.5,0,0,1,174.35,16.1Z"/>
      <path class="cls-1" d="M174.9,0a3.47,3.47,0,1,0,3.47,3.47A3.46,3.46,0,0,0,174.9,0Z"/>
    </g>
  </g>
</svg>
