<svg xmlns="http://www.w3.org/2000/svg" viewBox="0 0 326.17 74.94"><defs><style>.cls-1{fill:#fff;}.cls-2{fill:none;stroke:#fff;stroke-miterlimit:10;fill-rule:evenodd;}</style></defs><g id="Capa_2" data-name="Capa 2"><g id="Capa_1-2" data-name="Capa 1"><path class="cls-1" d="M108.31,64.73v9.51h-4.45V48.59h9.81a9.92,9.92,0,0,1,6.82,2.24A7.52,7.52,0,0,1,123,56.76a7.29,7.29,0,0,1-2.48,5.87,10.39,10.39,0,0,1-6.93,2.1Zm0-3.6h5.36A5.23,5.23,0,0,0,117.29,60a4.08,4.08,0,0,0,1.25-3.23,4.46,4.46,0,0,0-1.26-3.32,4.92,4.92,0,0,0-3.49-1.27h-5.48Z"/><path class="cls-1" d="M125.47,64.53a11.18,11.18,0,0,1,1.11-5A8.05,8.05,0,0,1,129.69,56a8.84,8.84,0,0,1,4.62-1.2,8.35,8.35,0,0,1,6.26,2.48,9.79,9.79,0,0,1,2.6,6.59v1a11.38,11.38,0,0,1-1.08,5,8,8,0,0,1-3.1,3.43,8.85,8.85,0,0,1-4.66,1.22,8.25,8.25,0,0,1-6.45-2.69,10.25,10.25,0,0,1-2.42-7.16Zm4.27.37A7.7,7.7,0,0,0,131,69.51a4,4,0,0,0,3.38,1.66,3.88,3.88,0,0,0,3.37-1.69,8.45,8.45,0,0,0,1.21-5A7.58,7.58,0,0,0,137.68,60a4,4,0,0,0-3.37-1.69A3.93,3.93,0,0,0,131,59.93,8.31,8.31,0,0,0,129.74,64.9Z"/><path class="cls-1" d="M156.78,59.09A11,11,0,0,0,155,59a3.93,3.93,0,0,0-4,2.25v13h-4.28V55.18h4.09l.1,2.13a4.84,4.84,0,0,1,4.3-2.48,4.14,4.14,0,0,1,1.52.24Z"/><path class="cls-1" d="M165.73,50.55v4.63h3.36v3.17h-3.36V69a2.3,2.3,0,0,0,.43,1.57,2,2,0,0,0,1.54.49,6.54,6.54,0,0,0,1.5-.18v3.31a10.62,10.62,0,0,1-2.82.41c-3.29,0-4.93-1.82-4.93-5.44V58.35h-3.14V55.18h3.14V50.55Z"/><path class="cls-1" d="M183.74,74.24a6.61,6.61,0,0,1-.49-1.78,6.66,6.66,0,0,1-5,2.13A6.74,6.74,0,0,1,173.56,73a5.23,5.23,0,0,1-1.81-4A5.42,5.42,0,0,1,174,64.22a11,11,0,0,1,6.47-1.63h2.63V61.34a3.33,3.33,0,0,0-.83-2.36,3.25,3.25,0,0,0-2.52-.89,3.74,3.74,0,0,0-2.39.73,2.23,2.23,0,0,0-.94,1.85h-4.28a4.77,4.77,0,0,1,1-2.93A7,7,0,0,1,176,55.6a10,10,0,0,1,4-.77,8,8,0,0,1,5.34,1.68,6,6,0,0,1,2,4.73v8.59a9.81,9.81,0,0,0,.72,4.11v.3ZM179,71.15a4.89,4.89,0,0,0,2.39-.61,4.2,4.2,0,0,0,1.68-1.66V65.29H180.8a6.24,6.24,0,0,0-3.57.83,2.67,2.67,0,0,0-1.2,2.34,2.47,2.47,0,0,0,.82,2A3.13,3.13,0,0,0,179,71.15Z"/><path class="cls-1" d="M196.42,74.24h-4.28V47.18h4.28Z"/><path class="cls-1" d="M214.09,55.18l.12,2a6.87,6.87,0,0,1,5.5-2.34c2.54,0,4.29,1,5.23,2.92a6.74,6.74,0,0,1,5.84-2.92,6,6,0,0,1,4.7,1.74,7.7,7.7,0,0,1,1.57,5.14V74.24h-4.28V61.84a3.78,3.78,0,0,0-.79-2.66,3.44,3.44,0,0,0-2.62-.85,3.53,3.53,0,0,0-2.39.79,4,4,0,0,0-1.29,2.05V74.24h-4.28V61.7c0-2.25-1.2-3.37-3.43-3.37a3.78,3.78,0,0,0-3.65,2.1V74.24h-4.28V55.18Z"/><path class="cls-1" d="M249.84,74.59a8.91,8.91,0,0,1-6.6-2.56,9.33,9.33,0,0,1-2.52-6.83v-.53a11.37,11.37,0,0,1,1.1-5.1,8.33,8.33,0,0,1,3.09-3.49,8.11,8.11,0,0,1,4.44-1.25,7.49,7.49,0,0,1,6,2.48c1.42,1.66,2.12,4,2.12,7v1.72H245a5.75,5.75,0,0,0,1.58,3.74,4.75,4.75,0,0,0,3.48,1.37,5.79,5.79,0,0,0,4.79-2.38l2.3,2.21a7.78,7.78,0,0,1-3.05,2.65A9.69,9.69,0,0,1,249.84,74.59Zm-.51-16.33a3.64,3.64,0,0,0-2.85,1.23,6.45,6.45,0,0,0-1.38,3.44h8.16v-.32a5.26,5.26,0,0,0-1.15-3.25A3.59,3.59,0,0,0,249.33,58.26Zm1-11.08h4.88l-4.88,5.34h-3.44Z"/><path class="cls-1" d="M260,64.57a11.31,11.31,0,0,1,2-7.07,6.56,6.56,0,0,1,5.48-2.67,6.23,6.23,0,0,1,4.9,2.11V47.18h4.28V74.24h-3.88l-.21-2a6.31,6.31,0,0,1-5.12,2.33,6.51,6.51,0,0,1-5.42-2.7A11.72,11.72,0,0,1,260,64.57Zm4.28.37a7.88,7.88,0,0,0,1.12,4.53,3.63,3.63,0,0,0,3.18,1.63,4,4,0,0,0,3.84-2.34V60.62a4,4,0,0,0-3.81-2.29,3.65,3.65,0,0,0-3.2,1.65A8.85,8.85,0,0,0,264.28,64.94Z"/><path class="cls-1" d="M281.17,50.23a2.27,2.27,0,0,1,.63-1.64,2.36,2.36,0,0,1,1.78-.65,2.4,2.4,0,0,1,1.8.65,2.27,2.27,0,0,1,.63,1.64,2.2,2.2,0,0,1-.63,1.61,2.4,2.4,0,0,1-1.8.64,2.35,2.35,0,0,1-1.78-.64A2.2,2.2,0,0,1,281.17,50.23Zm4.55,24h-4.28V55.18h4.28Z"/><path class="cls-1" d="M298.2,71.17a3.87,3.87,0,0,0,2.66-.93A3.18,3.18,0,0,0,302,67.93h4a6.33,6.33,0,0,1-1.11,3.32,7.23,7.23,0,0,1-2.82,2.44,8.35,8.35,0,0,1-3.84.9A8.13,8.13,0,0,1,291.91,72a10.28,10.28,0,0,1-2.34-7.15v-.44a10.12,10.12,0,0,1,2.33-7,8.05,8.05,0,0,1,6.34-2.61,7.85,7.85,0,0,1,5.54,2A7.1,7.1,0,0,1,306,62h-4a3.91,3.91,0,0,0-1.12-2.69,3.59,3.59,0,0,0-2.67-1.06,3.75,3.75,0,0,0-3.2,1.51,7.68,7.68,0,0,0-1.15,4.57V65A7.8,7.8,0,0,0,295,69.65,3.78,3.78,0,0,0,298.2,71.17Z"/><path class="cls-1" d="M308.45,64.53a11.18,11.18,0,0,1,1.11-5A8.14,8.14,0,0,1,312.68,56a8.83,8.83,0,0,1,4.61-1.2,8.34,8.34,0,0,1,6.26,2.48,9.75,9.75,0,0,1,2.6,6.59l0,1a11.38,11.38,0,0,1-1.08,5,8.07,8.07,0,0,1-3.1,3.43,8.87,8.87,0,0,1-4.66,1.22,8.29,8.29,0,0,1-6.46-2.69,10.29,10.29,0,0,1-2.42-7.16Zm4.28.37A7.7,7.7,0,0,0,314,69.51a3.94,3.94,0,0,0,3.38,1.66,3.9,3.9,0,0,0,3.37-1.69,8.45,8.45,0,0,0,1.21-5A7.65,7.65,0,0,0,320.67,60a4,4,0,0,0-3.38-1.69A4,4,0,0,0,314,59.93,8.31,8.31,0,0,0,312.73,64.9Z"/><polygon class="cls-2" points="0.56 37.47 19.09 0.5 68 0.5 86.53 37.47 68 74.44 19.09 74.44 0.56 37.47 0.56 37.47"/><path class="cls-1" d="M59.9,25.15a6.14,6.14,0,0,0-5.35,3.14L40.08,22.08a5,5,0,0,0,.09-.88,4.75,4.75,0,1,0-4.75,4.74,4.68,4.68,0,0,0,3.74-1.86l14.66,6.28a5.74,5.74,0,0,0,1.36,4.9L43.25,45.83a8,8,0,1,0,1.29,1.49L56.67,36.57A6.17,6.17,0,1,0,59.9,25.15Zm-24.7-5a1,1,0,0,0-1,1,.66.66,0,1,1-1.31,0,2.33,2.33,0,0,1,2.33-2.33.66.66,0,0,1,0,1.32ZM38,47.64a4.1,4.1,0,0,0-4.09,4.09.66.66,0,1,1-1.31,0,5.4,5.4,0,0,1,5.4-5.4.66.66,0,1,1,0,1.31ZM59.8,29a2.34,2.34,0,0,0-2.34,2.34.66.66,0,0,1-1.31,0,3.64,3.64,0,0,1,3.65-3.65.66.66,0,0,1,0,1.31Z"/><path class="cls-1" d="M104.08,41.62V24.14h5.71a6.58,6.58,0,0,1,4.28,1.18,4.22,4.22,0,0,1,1.44,3.48,3.54,3.54,0,0,1-.7,2.17,4.48,4.48,0,0,1-1.89,1.45,4.12,4.12,0,0,1,2.24,1.51,4.37,4.37,0,0,1,.82,2.65,4.68,4.68,0,0,1-1.53,3.7,6.32,6.32,0,0,1-4.31,1.34Zm2.3-10h3.49a3.66,3.66,0,0,0,2.41-.76,2.53,2.53,0,0,0,.91-2.06,2.51,2.51,0,0,0-.84-2.1,4.1,4.1,0,0,0-2.56-.66h-3.41Zm0,1.84v6.3h3.81a3.65,3.65,0,0,0,2.54-.84,2.92,2.92,0,0,0,.93-2.3c0-2.1-1.15-3.16-3.43-3.16Z"/><path class="cls-1" d="M127.06,41.62a4.55,4.55,0,0,1-.31-1.37,4.93,4.93,0,0,1-3.7,1.61,4.6,4.6,0,0,1-3.15-1.08A3.54,3.54,0,0,1,118.67,38a3.67,3.67,0,0,1,1.54-3.15,7.28,7.28,0,0,1,4.34-1.12h2.16v-1a2.51,2.51,0,0,0-.69-1.85,2.82,2.82,0,0,0-2.06-.69,3.24,3.24,0,0,0-2,.6,1.76,1.76,0,0,0-.81,1.45h-2.23a3.08,3.08,0,0,1,.69-1.88,4.77,4.77,0,0,1,1.87-1.43,6.36,6.36,0,0,1,2.6-.53,5.13,5.13,0,0,1,3.52,1.12,4,4,0,0,1,1.32,3.09v6a7.36,7.36,0,0,0,.46,2.85v.19Zm-3.69-1.69a3.94,3.94,0,0,0,2-.54A3.27,3.27,0,0,0,126.71,38V35.32H125c-2.72,0-4.08.79-4.08,2.39a2,2,0,0,0,.7,1.63A2.67,2.67,0,0,0,123.37,39.93Z"/><path class="cls-1" d="M134.51,28.63l.06,1.44a4.78,4.78,0,0,1,3.85-1.68,3.72,3.72,0,0,1,3.71,2.09A4.83,4.83,0,0,1,143.82,29a4.91,4.91,0,0,1,2.45-.58q4.28,0,4.35,4.53v8.7H148.4V33.05a2.94,2.94,0,0,0-.64-2.08,2.78,2.78,0,0,0-2.13-.7,3,3,0,0,0-2.06.74,3.06,3.06,0,0,0-.95,2v8.62h-2.23V33.11c0-1.89-.92-2.84-2.77-2.84a3,3,0,0,0-3,1.87v9.48H132.4v-13Z"/><path class="cls-1" d="M165,35.27a7.76,7.76,0,0,1-1.37,4.79,4.38,4.38,0,0,1-3.67,1.8,4.54,4.54,0,0,1-3.81-1.74l-.11,1.5h-2V23.18h2.22v6.88a4.52,4.52,0,0,1,3.71-1.67,4.41,4.41,0,0,1,3.72,1.79,8,8,0,0,1,1.35,4.9ZM162.75,35a6,6,0,0,0-.88-3.51,2.9,2.9,0,0,0-2.52-1.24,3.28,3.28,0,0,0-3.16,2.05v5.62a3.35,3.35,0,0,0,3.18,2,2.9,2.9,0,0,0,2.49-1.24A6.38,6.38,0,0,0,162.75,35Z"/><path class="cls-1" d="M175.79,40.34A4.73,4.73,0,0,1,172,41.86a4,4,0,0,1-3.16-1.2,5.23,5.23,0,0,1-1.1-3.58V28.63h2.22V37c0,2,.8,3,2.4,3a3.32,3.32,0,0,0,3.39-1.9V28.63H178v13h-2.11Z"/><path class="cls-1" d="M188.89,38.18a1.64,1.64,0,0,0-.68-1.4,6.36,6.36,0,0,0-2.36-.86,10.93,10.93,0,0,1-2.68-.87,3.75,3.75,0,0,1-1.47-1.2,2.88,2.88,0,0,1-.47-1.65,3.38,3.38,0,0,1,1.35-2.71,5.3,5.3,0,0,1,3.45-1.1,5.44,5.44,0,0,1,3.59,1.14A3.63,3.63,0,0,1,191,32.45h-2.23a2,2,0,0,0-.78-1.57,2.83,2.83,0,0,0-1.95-.66,3,3,0,0,0-1.89.52,1.68,1.68,0,0,0-.69,1.38,1.36,1.36,0,0,0,.64,1.22,7.9,7.9,0,0,0,2.3.78,11.73,11.73,0,0,1,2.69.89,3.9,3.9,0,0,1,1.53,1.24,3,3,0,0,1,.5,1.77,3.32,3.32,0,0,1-1.39,2.79,5.85,5.85,0,0,1-3.62,1,6.51,6.51,0,0,1-2.76-.55,4.56,4.56,0,0,1-1.88-1.54,3.75,3.75,0,0,1-.68-2.15H183a2.26,2.26,0,0,0,.89,1.77,3.45,3.45,0,0,0,2.2.66,3.59,3.59,0,0,0,2-.51A1.57,1.57,0,0,0,188.89,38.18Z"/><path class="cls-1" d="M196.67,39.74H205v1.88H194.35V24.14h2.32Z"/><path class="cls-1" d="M207.25,25.18a1.32,1.32,0,0,1,.33-.91,1.48,1.48,0,0,1,2,0,1.29,1.29,0,0,1,.34.91,1.25,1.25,0,0,1-.34.9,1.31,1.31,0,0,1-2.29-.9Zm2.4,16.44h-2.22v-13h2.22Z"/><path class="cls-1" d="M214.3,41.62V30.35h-2.05V28.63h2.05V27.3a4.39,4.39,0,0,1,1.12-3.23,4.2,4.2,0,0,1,3.15-1.14,5.64,5.64,0,0,1,1.53.2L220,24.92a6.61,6.61,0,0,0-1.2-.11,2.17,2.17,0,0,0-1.67.63,2.6,2.6,0,0,0-.59,1.82v1.37h2.77v1.72h-2.77V41.62Z"/><path class="cls-1" d="M226.85,41.86a5.69,5.69,0,0,1-4.3-1.73,6.43,6.43,0,0,1-1.66-4.64v-.41a7.81,7.81,0,0,1,.74-3.45,5.66,5.66,0,0,1,2.07-2.38,5.19,5.19,0,0,1,2.87-.86,4.88,4.88,0,0,1,3.94,1.67,7.21,7.21,0,0,1,1.41,4.78v.92h-8.81a4.67,4.67,0,0,0,1.13,3.11A3.5,3.5,0,0,0,227,40.05a3.86,3.86,0,0,0,2-.48,5.07,5.07,0,0,0,1.43-1.27l1.36,1.05A5.44,5.44,0,0,1,226.85,41.86Zm-.28-11.64a3,3,0,0,0-2.26,1,4.81,4.81,0,0,0-1.12,2.75h6.5v-.17a4.16,4.16,0,0,0-.91-2.62A2.75,2.75,0,0,0,226.57,30.22Z"/></g></g></svg>