<svg xmlns="http://www.w3.org/2000/svg" viewBox="0 0 103.17 39.64"><defs><style>.cls-1{fill:#fff;}</style></defs><g id="Capa_2" data-name="Capa 2"><g id="banner_covid" data-name="banner covid"><path class="cls-1" d="M42.09,34.25A6.36,6.36,0,0,1,41,38.18a3.58,3.58,0,0,1-3,1.46,3.47,3.47,0,0,1-2.9-1.34l-.12,1.14H32.77V24.38h2.39v5.47a3.43,3.43,0,0,1,2.77-1.21,3.64,3.64,0,0,1,3,1.44,6.46,6.46,0,0,1,1.11,4ZM39.7,34a4.57,4.57,0,0,0-.6-2.59,2.05,2.05,0,0,0-1.77-.86,2.2,2.2,0,0,0-2.17,1.35v4.38a2.22,2.22,0,0,0,2.19,1.38,2,2,0,0,0,1.73-.84,4.36,4.36,0,0,0,.62-2.52Z"/><path class="cls-1" d="M50.42,39.44a3.51,3.51,0,0,1-.27-1,4,4,0,0,1-5.4.28,2.93,2.93,0,0,1-1-2.26A3,3,0,0,1,45,33.87,6.07,6.07,0,0,1,48.61,33h1.46v-.69A1.89,1.89,0,0,0,49.61,31a1.85,1.85,0,0,0-1.41-.5,2.11,2.11,0,0,0-1.33.41,1.28,1.28,0,0,0-.52,1H44a2.62,2.62,0,0,1,.58-1.63,3.9,3.9,0,0,1,1.57-1.19,5.5,5.5,0,0,1,2.22-.43,4.43,4.43,0,0,1,3,.94,3.33,3.33,0,0,1,1.14,2.63V37a5.41,5.41,0,0,0,.4,2.29v.16ZM47.8,37.73a2.7,2.7,0,0,0,1.33-.35,2.2,2.2,0,0,0,.94-.92v-2H48.78a3.59,3.59,0,0,0-2,.46,1.51,1.51,0,0,0-.66,1.31,1.4,1.4,0,0,0,.45,1.09A1.78,1.78,0,0,0,47.8,37.73Z"/><path class="cls-1" d="M57.19,28.84l.06,1.1a3.83,3.83,0,0,1,3.06-1.3,2.92,2.92,0,0,1,2.91,1.63,3.77,3.77,0,0,1,3.26-1.63,3.29,3.29,0,0,1,2.61,1A4.27,4.27,0,0,1,70,32.47v7H67.59v-6.9a2.13,2.13,0,0,0-.44-1.48,2.36,2.36,0,0,0-2.79,0,2.2,2.2,0,0,0-.72,1.14v7.27H61.26v-7a1.7,1.7,0,0,0-1.91-1.87,2.1,2.1,0,0,0-2,1.17v7.68H54.94V28.84Z"/><path class="cls-1" d="M81.72,34.25a6.36,6.36,0,0,1-1.1,3.93,3.6,3.6,0,0,1-3,1.46,3.47,3.47,0,0,1-2.9-1.34l-.12,1.14H72.41V24.38h2.38v5.47a3.45,3.45,0,0,1,2.78-1.21,3.64,3.64,0,0,1,3.05,1.44,6.46,6.46,0,0,1,1.1,4ZM79.34,34a4.48,4.48,0,0,0-.61-2.59A2,2,0,0,0,77,30.59a2.22,2.22,0,0,0-2.18,1.35v4.38A2.24,2.24,0,0,0,77,37.7a2,2,0,0,0,1.72-.84,4.28,4.28,0,0,0,.63-2.52Z"/><path class="cls-1" d="M90.15,38.4a3.69,3.69,0,0,1-3,1.24,3.32,3.32,0,0,1-2.62-1,4.3,4.3,0,0,1-.88-2.92V28.84h2.38v6.84c0,1.34.56,2,1.67,2a2.37,2.37,0,0,0,2.35-1.25V28.84h2.38v10.6H90.21Z"/><path class="cls-1" d="M100.82,36.56a1.08,1.08,0,0,0-.52-1A5.64,5.64,0,0,0,98.56,35a8.51,8.51,0,0,1-2-.65,2.7,2.7,0,0,1-1.79-2.5,2.84,2.84,0,0,1,1.16-2.29,4.59,4.59,0,0,1,2.94-.92,4.78,4.78,0,0,1,3.08.94A3,3,0,0,1,103.09,32h-2.38a1.46,1.46,0,0,0-.52-1.14,2,2,0,0,0-1.35-.46,2.07,2.07,0,0,0-1.28.37,1.13,1.13,0,0,0-.49,1,1,1,0,0,0,.46.85,6.31,6.31,0,0,0,1.86.61,8.62,8.62,0,0,1,2.2.74,3.11,3.11,0,0,1,1.19,1,2.6,2.6,0,0,1,.39,1.45A2.76,2.76,0,0,1,102,38.75a5.08,5.08,0,0,1-3.11.89,5.52,5.52,0,0,1-2.32-.47A3.89,3.89,0,0,1,95,37.87a3,3,0,0,1-.57-1.77H96.7a1.73,1.73,0,0,0,.64,1.3,2.49,2.49,0,0,0,1.56.45,2.38,2.38,0,0,0,1.43-.35A1.1,1.1,0,0,0,100.82,36.56Z"/><path class="cls-1" d="M88.54,25.1H87.48l1.57-9h1.06Z"/><path class="cls-1" d="M91.43,25.1H90.37l1.11-6.36h1.06Zm.88-8.68a.56.56,0,0,1,.45.16.58.58,0,0,1,.18.45.62.62,0,0,1-.18.46.65.65,0,0,1-.45.18.55.55,0,0,1-.45-.16.53.53,0,0,1-.17-.44.65.65,0,0,1,.17-.46A.62.62,0,0,1,92.31,16.42Z"/><path class="cls-1" d="M93.69,25.1l1-5.52h-1l.15-.84h1l.1-.75a2.55,2.55,0,0,1,.74-1.5,2.25,2.25,0,0,1,1.58-.56A4.29,4.29,0,0,1,98,16l-.13.9a2.78,2.78,0,0,0-.57-.07,1.21,1.21,0,0,0-.9.34,1.52,1.52,0,0,0-.42.91l-.1.63h1.32l-.15.84H95.72l-1,5.52Z"/><path class="cls-1" d="M99.9,25.22a2.25,2.25,0,0,1-1.85-.88,3,3,0,0,1-.57-2.18l0-.25a4.25,4.25,0,0,1,.56-1.73A3.21,3.21,0,0,1,99.2,19a2.67,2.67,0,0,1,1.43-.38,2,2,0,0,1,1.54.65,2.68,2.68,0,0,1,.62,1.71,5,5,0,0,1,0,.77l-.06.48H98.54a2.15,2.15,0,0,0,.28,1.47,1.34,1.34,0,0,0,1.17.63,2.23,2.23,0,0,0,1.74-.84l.61.51a2.74,2.74,0,0,1-1,.91A3,3,0,0,1,99.9,25.22Zm.68-5.71a1.57,1.57,0,0,0-1.15.45,3.13,3.13,0,0,0-.78,1.38h3.09l0-.09a1.76,1.76,0,0,0-.24-1.23A1.11,1.11,0,0,0,100.58,19.51Z"/><g id="logotipo"><path class="cls-1" d="M16.52,16.64a20.09,20.09,0,0,1,2.86-3.42C21.55,11.05,23.62,9.6,24,10s-1.07,2.45-3.24,4.62a26.25,26.25,0,0,1-2.28,2l.57-.22c1.75-.66,3.27-.95,3.38-.64s-1.21,1.1-3,1.76a11,11,0,0,1-2.95.75V39.64h9.91V0H16.52Z"/><path class="cls-1" d="M9.91,29.71c-.71-.1-2.5-1.43-4.36-3.29-2.17-2.17-3.61-4.23-3.23-4.62S4.77,22.87,6.94,25a19.91,19.91,0,0,1,3,3.6V0H0V39.64H9.91Z"/></g></g></g></svg>