<svg xmlns="http://www.w3.org/2000/svg" viewBox="0 0 71.1 27.32"><defs><style>.cls-1{opacity:0.7;}.cls-2{fill:#9fad62;}</style></defs><title>Recurso 4</title><g id="Capa_2" data-name="Capa 2"><g id="Capa_1-2" data-name="Capa 1"><g class="cls-1"><path d="M29,23.59a4.36,4.36,0,0,1-.76,2.71,2.47,2.47,0,0,1-2.09,1,2.39,2.39,0,0,1-2-.93l-.08.79H22.59V16.8h1.64v3.77a2.37,2.37,0,0,1,1.91-.84,2.51,2.51,0,0,1,2.1,1A4.46,4.46,0,0,1,29,23.5Zm-1.64-.14a3.08,3.08,0,0,0-.42-1.78,1.38,1.38,0,0,0-1.21-.6,1.52,1.52,0,0,0-1.5.94v3a1.54,1.54,0,0,0,1.51.95,1.38,1.38,0,0,0,1.19-.57,3,3,0,0,0,.43-1.74Z"/><path d="M34.75,27.17a2.39,2.39,0,0,1-.19-.68,2.53,2.53,0,0,1-1.92.82,2.6,2.6,0,0,1-1.8-.63,2,2,0,0,1-.69-1.55,2.11,2.11,0,0,1,.86-1.8,4.28,4.28,0,0,1,2.49-.62h1v-.48a1.29,1.29,0,0,0-.31-.91,1.27,1.27,0,0,0-1-.34,1.44,1.44,0,0,0-.92.28.86.86,0,0,0-.36.71H30.3a1.79,1.79,0,0,1,.4-1.12A2.64,2.64,0,0,1,31.78,20a3.81,3.81,0,0,1,1.54-.3,3.06,3.06,0,0,1,2,.64,2.33,2.33,0,0,1,.79,1.82v3.3a3.82,3.82,0,0,0,.27,1.57v.11ZM32.94,26a2,2,0,0,0,.92-.23,1.52,1.52,0,0,0,.64-.64V23.74h-.88a2.41,2.41,0,0,0-1.37.32,1,1,0,0,0-.46.9,1,1,0,0,0,.31.75A1.2,1.2,0,0,0,32.94,26Z"/><path d="M39.41,19.86l.05.77a2.62,2.62,0,0,1,2.11-.9,2,2,0,0,1,2,1.12,2.58,2.58,0,0,1,2.24-1.12,2.29,2.29,0,0,1,1.81.67,3,3,0,0,1,.6,2v4.8H46.58V22.42a1.4,1.4,0,0,0-.31-1,1.29,1.29,0,0,0-1-.33,1.38,1.38,0,0,0-.92.3,1.61,1.61,0,0,0-.49.79v5H42.22V22.36a1.17,1.17,0,0,0-1.32-1.29,1.46,1.46,0,0,0-1.4.81v5.29H37.86V19.86Z"/><path d="M56.32,23.59a4.36,4.36,0,0,1-.76,2.71,2.48,2.48,0,0,1-2.09,1,2.38,2.38,0,0,1-2-.93l-.08.79H49.9V16.8h1.64v3.77a2.39,2.39,0,0,1,1.92-.84,2.51,2.51,0,0,1,2.1,1,4.46,4.46,0,0,1,.76,2.78Zm-1.64-.14a3.08,3.08,0,0,0-.42-1.78,1.39,1.39,0,0,0-1.22-.6,1.52,1.52,0,0,0-1.5.94v3a1.56,1.56,0,0,0,1.52.95,1.39,1.39,0,0,0,1.19-.57,3,3,0,0,0,.43-1.74Z"/><path d="M62.12,26.46a2.52,2.52,0,0,1-2,.85,2.26,2.26,0,0,1-1.8-.7,2.93,2.93,0,0,1-.61-2V19.86H59.3v4.72c0,.93.39,1.39,1.16,1.39a1.61,1.61,0,0,0,1.61-.86V19.86h1.64v7.31H62.17Z"/><path d="M69.48,25.19a.74.74,0,0,0-.36-.67,4,4,0,0,0-1.2-.41,5.93,5.93,0,0,1-1.4-.44,1.87,1.87,0,0,1-1.23-1.73,2,2,0,0,1,.8-1.58,3.17,3.17,0,0,1,2-.63,3.25,3.25,0,0,1,2.12.65,2.07,2.07,0,0,1,.8,1.68H69.4a1,1,0,0,0-.35-.79,1.32,1.32,0,0,0-.93-.31,1.41,1.41,0,0,0-.88.25.78.78,0,0,0-.35.67.65.65,0,0,0,.32.58,4.22,4.22,0,0,0,1.29.43,6.16,6.16,0,0,1,1.51.5,2.15,2.15,0,0,1,.82.71,1.78,1.78,0,0,1,.27,1,1.9,1.9,0,0,1-.82,1.6,3.46,3.46,0,0,1-2.14.61,3.87,3.87,0,0,1-1.6-.32,2.67,2.67,0,0,1-1.1-.9,2.11,2.11,0,0,1-.39-1.22h1.59a1.19,1.19,0,0,0,.44.9,1.77,1.77,0,0,0,1.08.31,1.59,1.59,0,0,0,1-.25A.75.75,0,0,0,69.48,25.19Z"/></g><g class="cls-1"><path d="M61,17.3h-.73l1.08-6.23h.73Z"/><path d="M63,17.3h-.73l.77-4.38h.73Zm.61-6a.45.45,0,0,1,.31.12.46.46,0,0,1,0,.62.44.44,0,0,1-.31.13.41.41,0,0,1-.32-.11.37.37,0,0,1-.11-.31.44.44,0,0,1,.43-.45Z"/><path d="M64.57,17.3l.66-3.81h-.67l.1-.57h.67l.07-.52a1.75,1.75,0,0,1,.52-1A1.52,1.52,0,0,1,67,11a2.26,2.26,0,0,1,.52.07l-.08.62a1.75,1.75,0,0,0-.4-.05.88.88,0,0,0-.62.23,1.16,1.16,0,0,0-.29.63l-.06.44H67l-.1.57H66L65.3,17.3Z"/><path d="M68.85,17.38a1.59,1.59,0,0,1-1.28-.6,2.07,2.07,0,0,1-.39-1.51l0-.17a3,3,0,0,1,.39-1.19,2.23,2.23,0,0,1,.77-.81,1.85,1.85,0,0,1,1-.27,1.4,1.4,0,0,1,1.07.45,2,2,0,0,1,.42,1.18,3.13,3.13,0,0,1,0,.53l0,.33H67.91a1.49,1.49,0,0,0,.2,1,.92.92,0,0,0,.8.43,1.57,1.57,0,0,0,1.2-.58l.42.35a1.88,1.88,0,0,1-.71.63A2,2,0,0,1,68.85,17.38Zm.47-3.93a1.08,1.08,0,0,0-.8.3,2.3,2.3,0,0,0-.53,1h2.13l0-.06A1.23,1.23,0,0,0,70,13.8.74.74,0,0,0,69.32,13.45Z"/></g><path class="cls-2" d="M11.38,11.47a14.79,14.79,0,0,1,2-2.36c1.49-1.5,2.92-2.49,3.18-2.23s-.74,1.69-2.23,3.18a18.83,18.83,0,0,1-1.57,1.42c.12-.06.26-.11.39-.16,1.21-.45,2.25-.65,2.33-.44s-.83.76-2,1.21a7.22,7.22,0,0,1-2,.52V27.32h6.83V0H11.38Z"/><path class="cls-2" d="M6.83,20.47a8.83,8.83,0,0,1-3-2.26c-1.5-1.5-2.5-2.92-2.23-3.18s1.69.73,3.18,2.22a13.43,13.43,0,0,1,2.05,2.49V0H0V27.32H6.83Z"/></g></g></svg>