<svg xmlns="http://www.w3.org/2000/svg" xmlns:xlink="http://www.w3.org/1999/xlink" viewBox="0 0 397.21 90.38"><defs><style>.cls-1,.cls-6{fill:none;}.cls-2{opacity:0.7;}.cls-3{clip-path:url(#clip-path);}.cls-4{font-size:17.69px;fill:#424242;font-family:ArialMT, Arial;}.cls-5{fill:#77a9ca;}.cls-5,.cls-6{fill-rule:evenodd;}.cls-7{fill:#fff;}</style><clipPath id="clip-path" transform="translate(0)"><rect class="cls-1" width="104.87" height="90.19"/></clipPath></defs><g id="Capa_2" data-name="Capa 2"><g id="chatbot"><g class="cls-2"><path d="M131.45,78.35V90H126V58.67h12a12.09,12.09,0,0,1,8.32,2.73,9.18,9.18,0,0,1,3.09,7.23,8.89,8.89,0,0,1-3,7.16c-2,1.71-4.83,2.56-8.46,2.56Zm0-4.38H138a6.41,6.41,0,0,0,4.42-1.37,5,5,0,0,0,1.53-3.94,5.42,5.42,0,0,0-1.55-4,6,6,0,0,0-4.25-1.56h-6.68Z" transform="translate(0)"/><path d="M152.37,78.11A13.69,13.69,0,0,1,153.72,72a9.87,9.87,0,0,1,3.81-4.21,10.63,10.63,0,0,1,5.63-1.48,10.14,10.14,0,0,1,7.63,3,11.86,11.86,0,0,1,3.17,8l0,1.22a13.86,13.86,0,0,1-1.32,6.15,9.8,9.8,0,0,1-3.78,4.19,10.76,10.76,0,0,1-5.68,1.48,10,10,0,0,1-7.87-3.28,12.53,12.53,0,0,1-3-8.73Zm5.22.45a9.41,9.41,0,0,0,1.48,5.62,4.84,4.84,0,0,0,4.13,2,4.77,4.77,0,0,0,4.11-2.06,10.37,10.37,0,0,0,1.48-6,9.21,9.21,0,0,0-1.52-5.58,5.1,5.1,0,0,0-8.17,0Q157.59,74.53,157.59,78.56Z" transform="translate(0)"/><path d="M190.57,71.47a13.51,13.51,0,0,0-2.13-.17q-3.58,0-4.83,2.75V90h-5.22V66.7h5l.13,2.6a5.88,5.88,0,0,1,5.24-3,4.9,4.9,0,0,1,1.85.3Z" transform="translate(0)"/><path d="M201.48,61.05V66.7h4.11v3.87h-4.11v13a2.84,2.84,0,0,0,.53,1.92,2.46,2.46,0,0,0,1.88.59,8.29,8.29,0,0,0,1.83-.21v4a13.28,13.28,0,0,1-3.44.49q-6,0-6-6.64V70.57h-3.82V66.7h3.82V61.05Z" transform="translate(0)"/><path d="M223.46,90a8,8,0,0,1-.6-2.17,8.77,8.77,0,0,1-11.81.6,6.38,6.38,0,0,1-2.22-4.94,6.59,6.59,0,0,1,2.76-5.7c1.84-1.33,4.48-2,7.9-2h3.2V74.22a4.1,4.1,0,0,0-1-2.89,4,4,0,0,0-3.07-1.08,4.6,4.6,0,0,0-2.92.89,2.77,2.77,0,0,0-1.14,2.27h-5.22a5.81,5.81,0,0,1,1.26-3.58A8.51,8.51,0,0,1,214,67.22a12.16,12.16,0,0,1,4.87-1,9.75,9.75,0,0,1,6.51,2.06,7.28,7.28,0,0,1,2.49,5.76V84.58a11.8,11.8,0,0,0,.88,5V90Zm-5.73-3.76a6,6,0,0,0,2.91-.75,5.05,5.05,0,0,0,2.05-2V79h-2.81a7.67,7.67,0,0,0-4.37,1,3.26,3.26,0,0,0-1.46,2.85,3.08,3.08,0,0,0,1,2.4A3.9,3.9,0,0,0,217.73,86.19Z" transform="translate(0)"/><path d="M238.93,90h-5.22V57h5.22Z" transform="translate(0)"/><path d="M260.48,66.7l.15,2.43a8.38,8.38,0,0,1,6.7-2.86q4.67,0,6.39,3.57a8.23,8.23,0,0,1,7.13-3.57q3.84,0,5.72,2.13t1.93,6.27V90h-5.22V74.82a4.65,4.65,0,0,0-1-3.24,4.23,4.23,0,0,0-3.2-1,4.33,4.33,0,0,0-2.91,1,5,5,0,0,0-1.58,2.5l0,15.94h-5.22V74.65q-.1-4.09-4.19-4.1a4.6,4.6,0,0,0-4.45,2.56V90h-5.22V66.7Z" transform="translate(0)"/><path d="M304.09,90.38a10.77,10.77,0,0,1-8-3.13A11.31,11.31,0,0,1,293,78.93v-.65a13.9,13.9,0,0,1,1.34-6.22,10.22,10.22,0,0,1,3.77-4.26,9.94,9.94,0,0,1,5.41-1.53,9.13,9.13,0,0,1,7.34,3q2.6,3,2.59,8.58V80H298.23a7,7,0,0,0,1.92,4.56,5.81,5.81,0,0,0,4.24,1.67,7.09,7.09,0,0,0,5.85-2.9L313.05,86a9.41,9.41,0,0,1-3.72,3.23A11.66,11.66,0,0,1,304.09,90.38Zm-.62-19.92A4.41,4.41,0,0,0,300,72a7.85,7.85,0,0,0-1.69,4.19h9.95v-.39a6.33,6.33,0,0,0-1.39-4A4.36,4.36,0,0,0,303.47,70.46ZM304.65,57h6l-6,6.51h-4.19Z" transform="translate(0)"/><path d="M316.49,78.15A13.81,13.81,0,0,1,319,69.53a8,8,0,0,1,6.68-3.26,7.59,7.59,0,0,1,6,2.58V57h5.22V90h-4.73l-.26-2.41a7.69,7.69,0,0,1-6.25,2.84,7.93,7.93,0,0,1-6.6-3.29Q316.49,83.81,316.49,78.15Zm5.22.46a9.68,9.68,0,0,0,1.37,5.53,4.42,4.42,0,0,0,3.87,2,5,5,0,0,0,4.69-2.86V73.34A4.86,4.86,0,0,0,327,70.55a4.45,4.45,0,0,0-3.91,2C322.17,73.9,321.71,75.91,321.71,78.61Z" transform="translate(0)"/><path d="M342.31,60.67a2.76,2.76,0,0,1,.77-2,2.88,2.88,0,0,1,2.18-.8,2.93,2.93,0,0,1,2.19.8,2.72,2.72,0,0,1,.77,2,2.66,2.66,0,0,1-.77,2,2.93,2.93,0,0,1-2.19.79,2.87,2.87,0,0,1-2.18-.79A2.7,2.7,0,0,1,342.31,60.67ZM347.86,90h-5.22V66.7h5.22Z" transform="translate(0)"/><path d="M363.09,86.21a4.71,4.71,0,0,0,3.24-1.14,3.89,3.89,0,0,0,1.38-2.81h4.92a7.71,7.71,0,0,1-1.35,4,9,9,0,0,1-3.44,3,10.28,10.28,0,0,1-4.69,1.1,9.9,9.9,0,0,1-7.73-3.16c-1.9-2.1-2.86-5-2.86-8.72V78a12.33,12.33,0,0,1,2.84-8.5,9.84,9.84,0,0,1,7.73-3.19,9.56,9.56,0,0,1,6.76,2.42A8.68,8.68,0,0,1,372.63,75h-4.92a4.81,4.81,0,0,0-1.36-3.29,4.41,4.41,0,0,0-3.26-1.29,4.61,4.61,0,0,0-3.91,1.84,9.4,9.4,0,0,0-1.4,5.58v.83a9.53,9.53,0,0,0,1.37,5.64A4.58,4.58,0,0,0,363.09,86.21Z" transform="translate(0)"/><path d="M375.59,78.11A13.69,13.69,0,0,1,377,72a9.85,9.85,0,0,1,3.8-4.21,10.63,10.63,0,0,1,5.63-1.48,10.16,10.16,0,0,1,7.64,3,12,12,0,0,1,3.17,8l0,1.22a13.86,13.86,0,0,1-1.32,6.15,9.82,9.82,0,0,1-3.79,4.19,10.76,10.76,0,0,1-5.68,1.48,10.06,10.06,0,0,1-7.87-3.28,12.53,12.53,0,0,1-3-8.73Zm5.22.45a9.34,9.34,0,0,0,1.49,5.62,5.17,5.17,0,0,0,8.24,0,10.38,10.38,0,0,0,1.47-6,9.21,9.21,0,0,0-1.52-5.58,5.1,5.1,0,0,0-8.17,0A10.19,10.19,0,0,0,380.81,78.56Z" transform="translate(0)"/></g><g class="cls-3"><text class="cls-4" transform="translate(0 16.53)"> </text></g><polygon class="cls-5" points="0 45.1 22.6 0 82.27 0 104.87 45.1 82.27 90.19 22.6 90.19 0 45.1 0 45.1"/><polygon class="cls-6" points="31.62 19.23 84.82 19.23 84.82 71.92 31.62 71.92 31.62 19.23 31.62 19.23"/><path class="cls-7" d="M72.39,30.06a7.52,7.52,0,0,0-6.53,3.84L48.21,26.33a6.38,6.38,0,0,0,.11-1.08,5.85,5.85,0,1,0-1.23,3.52L65,36.43a7,7,0,0,0,1.66,6L52.07,55.29a9.73,9.73,0,1,0,1.58,1.82L68.45,44a7.53,7.53,0,1,0,3.94-13.94ZM42.25,24A1.23,1.23,0,0,0,41,25.25a.8.8,0,0,1-1.6,0,2.84,2.84,0,0,1,2.83-2.84.81.81,0,0,1,0,1.61ZM45.7,57.51a5,5,0,0,0-5,5,.8.8,0,1,1-1.6,0,6.59,6.59,0,0,1,6.59-6.58.8.8,0,1,1,0,1.6ZM72.26,34.77a2.86,2.86,0,0,0-2.85,2.85.8.8,0,1,1-1.6,0,4.46,4.46,0,0,1,4.45-4.46.81.81,0,0,1,0,1.61Z" transform="translate(0)"/><g class="cls-2"><path d="M126.28,50.17V28.84h7a8.16,8.16,0,0,1,5.23,1.43,5.21,5.21,0,0,1,1.75,4.25,4.34,4.34,0,0,1-.85,2.64,5.5,5.5,0,0,1-2.32,1.78,5,5,0,0,1,2.73,1.84,5.29,5.29,0,0,1,1,3.23,5.69,5.69,0,0,1-1.86,4.51,7.68,7.68,0,0,1-5.26,1.65Zm2.81-12.24h4.25a4.42,4.42,0,0,0,2.95-.92,3.1,3.1,0,0,0,1.11-2.51,3,3,0,0,0-1-2.56,5,5,0,0,0-3.12-.8h-4.16Zm0,2.26v7.68h4.65a4.43,4.43,0,0,0,3.09-1A3.58,3.58,0,0,0,138,44q0-3.85-4.19-3.85Z" transform="translate(0)"/><path d="M154.32,50.17a5.41,5.41,0,0,1-.38-1.67,6.08,6.08,0,0,1-4.51,2,5.57,5.57,0,0,1-3.85-1.33,4.28,4.28,0,0,1-1.5-3.36A4.48,4.48,0,0,1,146,41.93a8.84,8.84,0,0,1,5.3-1.37h2.63V39.31a3,3,0,0,0-.85-2.26,3.4,3.4,0,0,0-2.5-.84,3.92,3.92,0,0,0-2.43.73,2.14,2.14,0,0,0-1,1.77H144.4a3.73,3.73,0,0,1,.84-2.29,5.75,5.75,0,0,1,2.29-1.75A7.68,7.68,0,0,1,150.7,34,6.26,6.26,0,0,1,155,35.39a4.94,4.94,0,0,1,1.61,3.77v7.3a8.94,8.94,0,0,0,.56,3.47v.24Zm-4.5-2.07a4.76,4.76,0,0,0,2.42-.66,4,4,0,0,0,1.65-1.71V42.47h-2.12c-3.32,0-5,1-5,2.92a2.45,2.45,0,0,0,.85,2A3.24,3.24,0,0,0,149.82,48.1Z" transform="translate(0)"/><path d="M163.4,34.32l.07,1.75a5.89,5.89,0,0,1,4.71-2q3.31,0,4.52,2.55a5.9,5.9,0,0,1,2.06-1.84,6.05,6.05,0,0,1,3-.71q5.2,0,5.3,5.53V50.17h-2.71V39.71a3.65,3.65,0,0,0-.78-2.55,3.44,3.44,0,0,0-2.61-.84,3.59,3.59,0,0,0-2.5.9,3.69,3.69,0,0,0-1.16,2.43V50.17h-2.72V39.78q0-3.47-3.39-3.46a3.62,3.62,0,0,0-3.64,2.27V50.17h-2.71V34.32Z" transform="translate(0)"/><path d="M200.56,42.42a9.36,9.36,0,0,1-1.67,5.83,5.32,5.32,0,0,1-4.48,2.21,5.51,5.51,0,0,1-4.64-2.13l-.13,1.84h-2.5V27.67h2.71v8.39a5.51,5.51,0,0,1,4.53-2,5.34,5.34,0,0,1,4.53,2.19,9.67,9.67,0,0,1,1.65,6Zm-2.71-.31a7.28,7.28,0,0,0-1.07-4.28,3.54,3.54,0,0,0-3.07-1.51,4,4,0,0,0-3.86,2.49v6.86a4.1,4.1,0,0,0,3.89,2.49,3.5,3.5,0,0,0,3-1.51A7.82,7.82,0,0,0,197.85,42.11Z" transform="translate(0)"/><path d="M213.76,48.6a5.74,5.74,0,0,1-4.64,1.86A4.93,4.93,0,0,1,205.26,49a6.37,6.37,0,0,1-1.34-4.36V34.32h2.71V44.55c0,2.41,1,3.61,2.93,3.61s3.44-.77,4.13-2.32V34.32h2.71V50.17h-2.58Z" transform="translate(0)"/><path d="M229.74,46a2,2,0,0,0-.83-1.71,8,8,0,0,0-2.88-1,14.09,14.09,0,0,1-3.27-1.06A4.67,4.67,0,0,1,221,40.69a3.48,3.48,0,0,1-.58-2,4.14,4.14,0,0,1,1.64-3.3A6.45,6.45,0,0,1,226.26,34a6.67,6.67,0,0,1,4.37,1.39A4.43,4.43,0,0,1,232.31,39h-2.73a2.45,2.45,0,0,0-.94-1.92,3.59,3.59,0,0,0-2.38-.8,3.72,3.72,0,0,0-2.32.64,2,2,0,0,0-.83,1.69,1.66,1.66,0,0,0,.77,1.48,9.64,9.64,0,0,0,2.81.95A14.55,14.55,0,0,1,230,42.09a4.74,4.74,0,0,1,1.86,1.52,3.69,3.69,0,0,1,.61,2.16,4,4,0,0,1-1.7,3.41,7.15,7.15,0,0,1-4.41,1.28,8,8,0,0,1-3.37-.68,5.4,5.4,0,0,1-2.29-1.88,4.54,4.54,0,0,1-.83-2.61h2.71a2.81,2.81,0,0,0,1.1,2.16,4.21,4.21,0,0,0,2.68.8,4.33,4.33,0,0,0,2.47-.63A1.91,1.91,0,0,0,229.74,46Z" transform="translate(0)"/><path d="M239.23,47.87h10.11v2.3H236.41V28.84h2.82Z" transform="translate(0)"/><path d="M252.14,30.11a1.59,1.59,0,0,1,.4-1.11,1.54,1.54,0,0,1,1.2-.46,1.57,1.57,0,0,1,1.2.46,1.6,1.6,0,0,1,.41,1.11,1.56,1.56,0,0,1-.41,1.1,1.59,1.59,0,0,1-1.2.44,1.45,1.45,0,0,1-1.6-1.54Zm2.93,20.06h-2.71V34.32h2.71Z" transform="translate(0)"/><path d="M260.74,50.17V36.41h-2.51V34.32h2.51V32.69a5.39,5.39,0,0,1,1.36-3.94A5.13,5.13,0,0,1,266,27.36a6.89,6.89,0,0,1,1.86.25l-.14,2.18a7.66,7.66,0,0,0-1.47-.13,2.6,2.6,0,0,0-2,.77,3.11,3.11,0,0,0-.72,2.21v1.68h3.38v2.09h-3.38V50.17Z" transform="translate(0)"/><path d="M276.05,50.46a7,7,0,0,1-5.25-2.12,7.84,7.84,0,0,1-2-5.66v-.5a9.53,9.53,0,0,1,.9-4.21,7.06,7.06,0,0,1,2.52-2.9,6.33,6.33,0,0,1,3.51-1,5.92,5.92,0,0,1,4.8,2,8.78,8.78,0,0,1,1.72,5.83V43H271.49a5.64,5.64,0,0,0,1.37,3.78,4.28,4.28,0,0,0,3.33,1.45,4.7,4.7,0,0,0,2.43-.59,6.13,6.13,0,0,0,1.75-1.55L282,47.4A6.65,6.65,0,0,1,276.05,50.46Zm-.34-14.21A3.63,3.63,0,0,0,273,37.44a5.72,5.72,0,0,0-1.38,3.35h7.94v-.2a5.17,5.17,0,0,0-1.12-3.21A3.41,3.41,0,0,0,275.71,36.25Z" transform="translate(0)"/></g></g></g></svg>