<?xml version="1.0" encoding="utf-8"?>
<!-- Generator: Adobe Illustrator 23.0.6, SVG Export Plug-In . SVG Version: 6.00 Build 0)  -->
<svg version="1.1" id="Capa_1" xmlns="http://www.w3.org/2000/svg" xmlns:xlink="http://www.w3.org/1999/xlink" x="0px" y="0px"
	 viewBox="0 0 144.2 44.6" style="enable-background:new 0 0 144.2 44.6;" xml:space="preserve">
<style type="text/css">
	.st0{fill:#FFFFFF;}
	.st1{fill:#7DB4D8;}
</style>
<rect x="43" y="10.5" class="st0" width="101.3" height="23.4"/>
<path class="st1" d="M61,24.4c-0.1,1.4-0.7,2.6-1.7,3.5c-1.2,0.9-2.6,1.3-4.1,1.3c-1.6,0.1-3.3-0.6-4.4-1.8
	c-1.1-1.4-1.7-3.1-1.6-4.9v-0.8c0-1.2,0.3-2.4,0.8-3.5c0.5-1,1.2-1.8,2.1-2.3c2.3-1.2,5.1-1,7.2,0.5c1,0.9,1.7,2.2,1.8,3.6h-3
	c0-0.7-0.3-1.4-0.8-1.9c-0.6-0.4-1.3-0.6-2-0.6c-0.9-0.1-1.7,0.3-2.2,1c-0.6,0.9-0.8,2-0.8,3.1v1c-0.1,1.1,0.1,2.3,0.7,3.3
	c0.5,0.7,1.4,1.1,2.2,1c0.7,0.1,1.5-0.2,2.1-0.6c0.5-0.5,0.8-1.2,0.8-1.9L61,24.4z"/>
<path class="st1" d="M74.9,22.4c0,1.2-0.2,2.4-0.8,3.6c-0.5,1-1.2,1.8-2.1,2.4c-1,0.6-2.1,0.9-3.2,0.8c-1.1,0-2.2-0.3-3.2-0.8
	c-1-0.5-1.7-1.4-2.2-2.4c-0.5-1.1-0.8-2.3-0.8-3.5v-0.7c0-1.2,0.2-2.5,0.8-3.6c0.5-1,1.2-1.8,2.2-2.4c2-1.1,4.4-1.1,6.4,0
	c0.9,0.6,1.7,1.4,2.2,2.4c0.5,1.1,0.8,2.3,0.8,3.6V22.4z M71.9,21.8c0.1-1.2-0.2-2.3-0.9-3.3c-1.1-1.3-2.9-1.5-4.2-0.4
	c-0.2,0.1-0.3,0.3-0.4,0.4c-0.6,1-0.9,2.1-0.8,3.3v0.7c-0.1,1.1,0.2,2.3,0.8,3.3c1,1.3,2.8,1.5,4.1,0.6c0.2-0.1,0.4-0.3,0.5-0.5
	c0.6-1,0.9-2.1,0.8-3.3L71.9,21.8z"/>
<path class="st1" d="M82.2,25.6l3.3-10.3h3.3l-5,13.7h-3.1l-5-13.7h3.3L82.2,25.6z"/>
<path class="st1" d="M93.3,29h-3V15.3h3V29z"/>
<path class="st1" d="M96,29V15.3h4.4c1.2,0,2.4,0.3,3.4,0.8c1,0.5,1.8,1.3,2.3,2.3c0.6,1,0.9,2.2,0.8,3.4v0.6c0,1.2-0.3,2.4-0.8,3.4
	c-0.5,1-1.4,1.8-2.3,2.3c-1.1,0.6-2.2,0.8-3.4,0.8L96,29z M99,17.6v9.2h1.4c1,0.1,2-0.3,2.7-1.1c0.7-0.9,1-2,1-3.1v-0.7
	c0.1-1.1-0.2-2.3-0.9-3.2c-0.7-0.7-1.7-1.1-2.7-1.1H99z"/>
<path class="st1" d="M114.7,24.2h-5.6V22h5.6L114.7,24.2z"/>
<path class="st1" d="M123.8,29h-2.9V18.5l-3.4,1v-2.2l6-2h0.3L123.8,29z"/>
<path class="st1" d="M135.2,23.5c-0.7,0.7-1.6,1.1-2.6,1c-1.2,0-2.3-0.4-3.1-1.3c-0.8-0.9-1.2-2.1-1.1-3.4c0-0.9,0.2-1.7,0.6-2.5
	c0.4-0.7,1-1.3,1.7-1.8c0.8-0.4,1.6-0.6,2.5-0.6c0.9,0,1.8,0.2,2.5,0.7c0.8,0.5,1.4,1.1,1.7,1.9c0.4,0.9,0.6,1.9,0.6,2.9v1
	c0.1,2-0.5,3.9-1.8,5.4c-1.3,1.4-3.2,2.1-5.1,2.1h-0.7v-2.3h0.6C133.7,26.7,135,25.6,135.2,23.5z M133.3,22.5c0.4,0,0.8-0.1,1.2-0.3
	c0.3-0.2,0.6-0.5,0.8-0.8v-1.2c0-0.8-0.1-1.5-0.6-2.1c-0.3-0.5-0.9-0.8-1.5-0.8c-0.6,0-1.1,0.3-1.4,0.8c-0.4,0.5-0.6,1.2-0.6,1.9
	c0,0.7,0.2,1.3,0.5,1.8C132.1,22.2,132.7,22.5,133.3,22.5L133.3,22.5z"/>
<g>
	<path class="st0" d="M14.6,12c0.1-0.1,0.2-0.1,0.3-0.2c0.5-0.4,1-0.7,1.6-1.1c-0.1-0.5-0.6-0.8-1-1c-0.8-0.4-1.3-1-1.5-1.8
		c-0.1-0.3-0.1-0.7-0.1-1.1c0.1-1.8,2-2.8,3.5-1.9c1.1,0.7,1.6,2,1.3,3.2c-0.2,0.7-0.2,1,0.1,1.4c0.1,0,0.1,0,0.2,0
		c0.8-0.2,1.7-0.3,2.5-0.5c0.4-0.1,0.5-0.1,0.5-0.5c0-0.7,0-1.5-0.1-2.2c-0.1-0.5-0.4-1-0.7-1.4c-1-1-0.9-2.9-0.1-4
		c1.2-1.5,3.3-1.5,4.4,0.1c0.8,1.2,0.7,2.8-0.2,3.8c-0.6,0.6-0.8,1.3-0.8,2.2c0,0.6,0,1.2,0,1.8c0,0.1,0,0.3,0,0.4
		c0,0.2-0.1,0.3-0.3,0.3c-0.2,0-0.3-0.1-0.4-0.4c-0.1-1.1-0.1-2.3,0.2-3.4c0.1-0.5,0.4-0.9,0.8-1.3c0.8-0.8,0.9-2.3,0-3.3
		c-0.7-0.8-2-0.9-2.8-0.1c-0.9,0.9-1,2.3-0.2,3.3c0.4,0.4,0.7,0.9,0.8,1.5c0.2,1.1,0.3,2.3,0.2,3.4c0,0.2-0.1,0.3-0.3,0.3
		c-1.3,0.1-2.6,0.4-3.9,0.9c0,0,0,0-0.1,0c-0.4-0.6-0.5-1.3-0.4-2C17.9,8.3,18,8.1,18,8c0.2-1-0.2-2-1.1-2.4
		c-1.1-0.5-2.2,0.1-2.4,1.3c-0.1,1,0.3,1.8,1.2,2.2c0.8,0.4,1.4,1,1.7,1.9c-0.1,0.1-0.3,0.2-0.4,0.3c-0.7,0.5-1.4,0.9-2.1,1.4
		c-0.4,0.3-0.4,0.4-0.8,0c-0.4-0.4-0.7-0.7-1.1-1.1c-0.8-0.8-1.4-1.7-1.4-2.9c0-0.7-0.4-1.2-0.9-1.6c-0.4-0.4-0.9-0.6-1.4-0.6
		C8.2,6.3,7.3,7.1,7.3,8.3c0,1.2,1,2.3,2.2,2.4c1,0.1,1.9,0.5,2.6,1.2c0.4,0.4,0.9,0.9,1.3,1.3c0.1,0.1,0.2,0.3,0.4,0.4
		c-0.1,0.1-0.1,0.2-0.2,0.3c-0.7,0.9-1.4,1.8-1.9,2.8c-0.3,0.6-0.4,0.6-0.9,0.3c-0.6-0.3-1-0.8-1.4-1.4c-0.5-0.8-1.2-1.1-2.1-1
		c-1.3,0.1-1.9,1.5-1.2,2.6c0.5,0.8,1.5,1.1,2.3,0.8c0.7-0.2,1.4-0.3,2.2-0.1c0.5,0.1,0.5,0.2,0.4,0.7c-0.2,0.8-0.3,1.6-0.5,2.5
		c-0.1,0.5-0.1,0.5-0.6,0.5c-0.9,0-1.9,0-2.8-0.1c-0.7,0-1.3-0.5-1.9-0.9c-0.9-0.7-2.2-0.8-3.1-0.1c-1.2,0.9-1.1,2.7,0.3,3.4
		c0.8,0.4,2,0.5,2.9-0.3c0.6-0.6,1.4-0.9,2.2-0.9c0.8,0,1.6,0,2.4,0c0.4,0,0.5,0,0.5,0.4c0.1,1.2,0.3,2.3,0.7,3.4
		c0.2,0.4,0.1,0.5-0.3,0.7c-0.7,0.3-1.4,0.3-2.1,0.1c-0.9-0.3-1.7,0-2.3,0.7c-0.5,0.5-0.6,1.2-0.2,1.8c0.3,0.6,0.9,0.9,1.5,0.9
		c0.9,0,1.6-0.4,2-1.2c0.4-0.8,1-1.4,1.9-1.7c0.3,0.5,0.6,1,0.9,1.5c0.3,0.5,0.7,0.9,1.1,1.4c-0.2,0.2-0.3,0.4-0.5,0.5
		c-0.5,0.5-1.1,1-1.6,1.5c-0.6,0.6-1.3,0.8-2.2,0.9c-1.3,0.1-2.3,1.1-2.3,2.4c-0.1,1.3,1.1,2.2,2.3,2c1.1-0.2,2-1.2,2.1-2.3
		c0-0.9,0.3-1.7,1-2.4c0.6-0.6,1.3-1.3,1.9-1.9c0,0,3.7,2.3,3.7,2.4c-0.2,0.7-0.6,1.3-1.2,1.7c-0.2,0.1-0.4,0.2-0.5,0.3
		c-0.8,0.5-1.1,1.6-0.8,2.5c0.4,1,1.6,1.4,2.5,0.7c0.7-0.6,1.1-1.6,0.8-2.4c-0.3-0.7-0.3-1.3-0.1-2c0-0.2,0.1-0.3,0.2-0.5
		c0.2,0,0.3,0,0.4,0.1c0.8,0.2,1.7,0.3,2.5,0.5c0.5,0.1,0.6,0.1,0.6,0.6c0,0.9,0,1.8-0.1,2.7c0,0.7-0.4,1.3-0.9,1.8
		c-0.8,0.9-0.8,2.2-0.1,3.2c0.8,1.1,2.3,1.1,3.1,0c0.7-0.9,0.7-2.3,0-3.1c-0.7-0.8-1-1.7-1-2.8c0-0.4,0-0.7,0-1.1
		c0-0.1,0-0.3,0.1-0.4c0.1-0.1,0.2-0.2,0.3-0.2c0.1,0,0.2,0.1,0.3,0.2c0,0.1,0,0.3,0,0.4c0,0.4,0,0.9,0,1.3c0,0.8,0.3,1.4,0.8,2
		c1.1,1.2,1,3.1-0.1,4.3c-1,1.1-2.9,1-3.9-0.2c-1-1.2-1-2.9,0-4.1c0.5-0.6,0.8-1.2,0.8-2c0-0.5,0-1.1,0.1-1.6c0-0.3-0.1-0.4-0.4-0.5
		c-0.5-0.1-1-0.2-1.6-0.3c-0.4-0.1-0.5,0-0.5,0.4c0,0.4,0.1,0.7,0.2,1.1c0.3,1.2,0.1,2.2-0.8,3c-0.7,0.7-1.6,0.9-2.6,0.5
		c-0.9-0.4-1.4-1.2-1.4-2.1c0-1.2,0.4-2.1,1.5-2.7c0.4-0.2,0.8-0.5,0.9-1c-0.5-0.3-0.9-0.5-1.3-0.8c-0.4-0.3-0.9-0.6-1.4-0.9
		c-0.1,0.1-0.3,0.2-0.4,0.3c-0.4,0.5-0.9,0.9-1.3,1.4c-0.4,0.5-0.6,1.1-0.6,1.7c-0.1,1.4-1,2.4-2.3,2.8c-2,0.6-3.8-1.1-3.4-3.1
		c0.3-1.4,1.5-2.5,2.9-2.6c0.6,0,1.2-0.2,1.7-0.6c0.5-0.4,1-0.9,1.5-1.3c0.2-0.2,0.2-0.4,0-0.6c-0.4-0.5-0.8-1-1.1-1.6
		c-0.3,0.1-0.5,0.3-0.7,0.5c-0.1,0.2-0.2,0.4-0.4,0.6c-0.6,1.1-2,1.7-3.3,1.4c-1.4-0.4-2.1-1.9-1.5-3.3c0.6-1.2,1.9-1.8,3.2-1.5
		c0.9,0.2,1,0.2,1.5,0c0-0.1,0-0.2,0-0.3c-0.2-0.8-0.4-1.6-0.5-2.4c-0.1-0.4-0.1-0.5-0.5-0.5c-0.5,0-1,0-1.5,0c-0.8,0-1.4,0.3-2,0.8
		c-1.1,0.9-2.7,1-3.9,0.2c-1.6-1-1.6-3.2-0.1-4.4c1.1-0.8,2.9-0.9,4,0.1C6.5,20.7,7.2,21,8,21c0.5,0,0.9,0,1.4,0
		c0.4,0,0.5-0.1,0.6-0.5c0.1-0.6,0.2-1.3,0.3-1.9c-0.5-0.2-0.9-0.1-1.4,0.1C8.2,19,7.4,19,6.7,18.6c-0.7-0.4-1.2-0.9-1.5-1.7
		c-0.3-1.1,0.3-2.3,1.4-2.7c1.1-0.4,2.7-0.2,3.5,1.2c0.4,0.7,0.5,0.8,1,1c0.6-0.9,1.1-1.8,1.7-2.7c-0.1-0.1-0.2-0.3-0.3-0.4
		c-0.3-0.3-0.6-0.5-0.9-0.8c-0.7-0.7-1.5-1-2.4-1.1c-1.8-0.1-3.1-2.2-2.6-3.9C7.1,6.1,8.6,5.4,10,5.8c1.5,0.4,2.3,1.7,2.4,2.8
		c0,0.7,0.3,1.4,0.8,1.9C13.6,11,14,11.5,14.6,12z"/>
	<g>
		<g>
			<path class="st0" d="M23.8,26.9c0.1,0,0.1-0.1,0.1-0.1c0.8-0.8,1.6-1.6,2.5-2.5c0.6-0.6,1.2-1.2,1.8-1.8c0.9-0.9,1.1-2.3,0.5-3.3
				c-0.5-1-1.6-1.6-2.8-1.5c-0.6,0.1-1.2,0.3-1.6,0.7c-0.1,0.1-0.3,0.3-0.4,0.4c-0.1-0.1-0.1-0.1-0.2-0.2c-0.2-0.1-0.3-0.3-0.5-0.4
				c-1.7-1.2-4.1-0.2-4.4,1.8c-0.1,0.4-0.1,0.9,0.1,1.3c0,0,0,0.1,0,0.1c-0.2,0-0.5,0-0.7,0c-0.3-1-0.1-2.6,1.2-3.7
				c1.2-0.9,3-1.1,4.5,0.1c0,0,0.1,0,0.1-0.1c0.5-0.4,1.1-0.7,1.8-0.8c0.3-0.1,0.7,0,1,0c1.1,0.2,1.9,0.7,2.5,1.6
				c0.9,1.4,0.7,3.2-0.5,4.3c-1.2,1.2-2.5,2.5-3.7,3.7c-0.3,0.3-0.7,0.7-1,1c0,0-0.1,0.1-0.1,0.1c-0.1-0.1-4.7-4.6-4.8-4.7
				c0,0,0.1,0,0.1,0c0.2,0,0.5,0,0.7,0c0.1,0,0.1,0,0.2,0.1c1.2,1.2,2.4,2.4,3.6,3.6C23.7,26.8,23.7,26.8,23.8,26.9z"/>
			<path class="st0" d="M23.5,23.1c0.1-0.3,0.2-0.6,0.3-0.9c0.2-0.6,0.3-1.2,0.5-1.8c0,0,0-0.1,0-0.1c0.1-0.1,0.2-0.2,0.3-0.2
				c0.1,0,0.3,0.1,0.3,0.2c0.1,0.2,0.2,0.5,0.2,0.7c0.1,0.2,0.2,0.5,0.2,0.7c0,0,0,0.1,0,0.1c0.1,0,0.1,0,0.1,0c0.6,0,1.2,0,1.8,0
				c0,0,0.1,0,0.1,0c0.2,0,0.3,0.2,0.3,0.3c0,0.2-0.1,0.3-0.3,0.3c0,0-0.1,0-0.1,0c-0.7,0-1.5,0-2.2,0c-0.2,0-0.4-0.1-0.4-0.3
				c0-0.2-0.1-0.3-0.2-0.5c0,0,0-0.1-0.1-0.1c0,0.1,0,0.1,0,0.1c-0.3,0.9-0.5,1.8-0.8,2.8c0,0,0,0.1,0,0.1c-0.1,0.1-0.2,0.2-0.3,0.2
				c-0.1,0-0.3-0.1-0.3-0.2c0,0,0-0.1,0-0.2C23,24.3,23,24,22.9,23.7c-0.1-0.3-0.2-0.6-0.2-0.9c-0.2-0.7-0.3-1.5-0.5-2.2
				c0,0,0-0.1,0-0.2c0,0.1,0,0.1-0.1,0.1c-0.2,0.6-0.4,1.1-0.7,1.7c0,0,0,0.1-0.1,0.1c-0.1,0.1-0.2,0.1-0.3,0.1c-0.4,0-0.8,0-1.2,0
				c-0.3,0-0.7,0-1,0c-0.1,0-0.1,0-0.2,0c-0.1-0.1-0.2-0.2-0.2-0.4c0-0.1,0.1-0.3,0.3-0.3c0,0,0.1,0,0.1,0c0.6,0,1.2,0,1.9,0
				c0.1,0,0.1,0,0.2-0.1c0.3-0.8,0.7-1.7,1-2.5c0,0,0-0.1,0-0.1C22,19,22.2,19,22.3,19c0.1,0,0.3,0.1,0.3,0.3c0,0.2,0.1,0.3,0.1,0.5
				c0.2,1.1,0.5,2.2,0.7,3.3C23.4,23,23.5,23.1,23.5,23.1C23.5,23.1,23.5,23.1,23.5,23.1z"/>
		</g>
	</g>
</g>
</svg>
