<svg xmlns="http://www.w3.org/2000/svg" viewBox="0 0 11.44 11.44"><defs><style>.cls-1{fill:#f0f0f0;}.cls-2{fill:#338af3;}.cls-3{fill:#ffda44;}.cls-4{fill:none;stroke:#c6c6c6;stroke-width:0.25px;}</style></defs><g id="Capa_2" data-name="Capa 2"><g id="menu-superior"><g id="Capa_10" data-name="Capa 10"><circle class="cls-1" cx="5.72" cy="5.72" r="5.59"/><path id="SVGCleanerId_0" data-name="SVGCleanerId 0" class="cls-2" d="M5.72,4.26h5.4a5.76,5.76,0,0,0-.63-1.46H5.72Z"/><path class="cls-2" d="M2.24,10.09h7a5.58,5.58,0,0,0,1.29-1.45H1A5.58,5.58,0,0,0,2.24,10.09Z"/><path class="cls-2" d="M5.72.13V1.34H9.2A5.59,5.59,0,0,0,5.72.13Z"/><path id="SVGCleanerId_0-2" data-name="SVGCleanerId 0" class="cls-2" d="M5.72,4.26h5.4a5.76,5.76,0,0,0-.63-1.46H5.72Z"/><path class="cls-2" d="M.13,5.72A5.47,5.47,0,0,0,.32,7.18h10.8a5.9,5.9,0,0,0,.19-1.46Z"/><polygon class="cls-3" points="4.99 3.4 4.3 3.72 4.67 4.38 3.93 4.24 3.83 4.99 3.32 4.44 2.8 4.99 2.71 4.24 1.97 4.38 2.33 3.72 1.65 3.4 2.33 3.08 1.97 2.42 2.71 2.56 2.8 1.81 3.32 2.36 3.83 1.81 3.93 2.56 4.67 2.42 4.3 3.08 4.99 3.4"/><circle class="cls-4" cx="5.72" cy="5.72" r="5.59"/></g></g></g></svg>