<?xml version="1.0" encoding="iso-8859-1"?>
<!-- Generator: Adobe Illustrator 19.0.0, SVG Export Plug-In . SVG Version: 6.00 Build 0)  -->
<svg version="1.1" id="Capa_1" xmlns="http://www.w3.org/2000/svg" xmlns:xlink="http://www.w3.org/1999/xlink" x="0px" y="0px"
	 viewBox="0 0 512.001 512.001" style="enable-background:new 0 0 512.001 512.001;" xml:space="preserve">
<linearGradient id="SVGID_1_" gradientUnits="userSpaceOnUse" x1="255.9445" y1="484.118" x2="255.9445" y2="32.024" gradientTransform="matrix(1.0002 0 0 -1.0002 0.009 514.1189)">
	<stop  offset="0" style="stop-color:#2AF598"/>
	<stop  offset="1" style="stop-color:#009EFD"/>
</linearGradient>
<path style="fill:url(#SVGID_1_);" d="M434.607,190.77c3.637-11.84,5.474-23.432,5.474-34.67c0-36.824-12.125-68.567-35.065-91.797
	c-21.898-22.177-52.071-34.39-84.957-34.39c-42.991,0-72.168,16.806-89.075,30.905c-3.613,3.013-7.291,6.467-10.793,10.174
	c-3.608-3.844-7.413-7.412-11.147-10.504c-16.844-13.948-45.961-30.575-89.021-30.575c-32.886,0-63.059,12.213-84.957,34.39
	C12.125,87.534,0,119.276,0,156.1c0,44.067,27.769,92.33,82.534,143.448c49.31,46.025,103.35,78.328,113.683,84.336
	c4.288,2.493,13.831,7.996,13.831,7.996l9.997,5.765l1.052-0.607c2.533,2.505,5.15,5.019,7.85,7.54
	c38.328,35.787,80.331,60.901,88.363,65.574c3.308,1.922,10.664,6.167,10.664,6.167l9.999,5.768l9.997-5.772
	c0,0,7.35-4.243,10.653-6.164c8.031-4.671,50.036-29.787,88.364-65.572c43.14-40.277,65.014-78.581,65.014-113.847
	C512,238.866,480.446,199.511,434.607,190.77z M163.936,290.732c0,8.793,1.361,17.773,4.071,26.927
	c-17.836-12.819-38.413-28.911-58.175-47.357C64.153,227.663,40.007,188.173,40.007,156.1c0-51.546,32.155-86.18,80.015-86.18
	c11.212,0,21.121,1.524,29.833,3.977c36.8,14.292,70.745,68.87,70.745,68.87s31.733-51.938,66.309-67.749
	c9.508-3.107,20.516-5.097,33.149-5.097c47.86,0,80.015,34.632,80.015,86.18c0,10.799-2.753,22.517-8.191,34.932
	c-27.265,5.16-44.507,19.009-54.828,31.31c-13.426-15.375-37.421-33.401-76.099-33.401
	C204.738,188.941,163.936,231.751,163.936,290.732z M338.508,435.568c-0.171,0.099-0.353,0.205-0.543,0.315
	c-0.19-0.111-0.371-0.216-0.542-0.315c-53.655-31.209-133.479-95.536-133.479-144.837c0-35.674,21.354-60.041,53.51-61.687
	c26.551,2.829,47.68,22.749,61.698,40.915c12.504,16.204,19.355,31.002,19.355,31.002s6.352-15.519,18.684-32.174
	c13.278-17.932,33.495-37.169,60.198-39.784c32.764,1.145,54.604,25.653,54.604,61.727
	C471.993,340.031,392.165,404.358,338.508,435.568z"/>
<g>
</g>
<g>
</g>
<g>
</g>
<g>
</g>
<g>
</g>
<g>
</g>
<g>
</g>
<g>
</g>
<g>
</g>
<g>
</g>
<g>
</g>
<g>
</g>
<g>
</g>
<g>
</g>
<g>
</g>
</svg>
