<?xml version="1.0" encoding="utf-8"?>
<!-- Generator: Adobe Illustrator 19.0.0, SVG Export Plug-In . SVG Version: 6.00 Build 0)  -->
<svg xmlns="http://www.w3.org/2000/svg" xmlns:xlink="http://www.w3.org/1999/xlink" version="1.1" id="Layer_1" x="0px" y="0px" viewBox="0 2 98 98" style="enable-background:new 0 2 98 98;" xml:space="preserve" width="512" height="512">
<style type="text/css">
	.st0{fill:url(#SVGID_1_);}
	.st1{fill:url(#SVGID_2_);}
	.st2{fill:url(#SVGID_3_);}
	.st3{fill:url(#SVGID_4_);}
	.st4{fill:url(#SVGID_5_);}
</style>
<g>
	
		<linearGradient id="SVGID_1_" gradientUnits="userSpaceOnUse" x1="22.1936" y1="2" x2="22.1936" y2="94.0024" gradientTransform="matrix(1 0 0 1 0 4)">
		<stop offset="0" style="stop-color:#00EFD1"/>
		<stop offset="1" style="stop-color:#00ACEA"/>
	</linearGradient>
	<path class="st0" d="M27.2,43.3h-10c-7.2,0-13.1,5.9-13.1,13.1v14.3c0,1.7,1.3,3,3,3h2.6l1.5,22.2c0.1,1.6,1.4,2.8,3,2.8h16.1   c1.6,0,2.9-1.2,3-2.8l1.5-22.3h2.5c1.7,0,3-1.3,3-3V56.4C40.3,49.2,34.4,43.3,27.2,43.3z M34.3,67.6H32c-1.6,0-2.9,1.2-3,2.8   l-1.5,22.3H17l-1.5-22.2c-0.1-1.6-1.4-2.8-3-2.8h-2.4V56.4c0-3.9,3.2-7.1,7.1-7.1h10c3.9,0,7.1,3.2,7.1,7.1V67.6z"/>
	
		<linearGradient id="SVGID_2_" gradientUnits="userSpaceOnUse" x1="22.2936" y1="2" x2="22.2936" y2="94.0024" gradientTransform="matrix(1 0 0 1 0 4)">
		<stop offset="0" style="stop-color:#00EFD1"/>
		<stop offset="1" style="stop-color:#00ACEA"/>
	</linearGradient>
	<path class="st1" d="M22.3,42.8c5.8,0,10.6-4.8,10.6-10.6s-4.8-10.6-10.6-10.6s-10.6,4.8-10.6,10.6S16.5,42.8,22.3,42.8z    M22.3,27.6c2.5,0,4.6,2.1,4.6,4.6s-2.1,4.6-4.6,4.6s-4.6-2.1-4.6-4.6C17.7,29.7,19.8,27.6,22.3,27.6z"/>
	
		<linearGradient id="SVGID_3_" gradientUnits="userSpaceOnUse" x1="75.2656" y1="2" x2="75.2656" y2="94.0024" gradientTransform="matrix(1 0 0 1 0 4)">
		<stop offset="0" style="stop-color:#00EFD1"/>
		<stop offset="1" style="stop-color:#00ACEA"/>
	</linearGradient>
	<path class="st2" d="M93.7,81.9l-4.4-11.6h1c1.7,0,3-1.3,3-3V56.4c0-7.2-5.9-13.1-13.1-13.1h-10c-7.2,0-13.1,5.9-13.1,13.1v10.9   c0,1.7,1.3,3,3,3h1.1l-4.4,11.6c-0.3,0.9-0.2,2,0.3,2.8c0.6,0.8,1.5,1.3,2.5,1.3h2.9v9.7c0,1.7,1.3,3,3,3H85c1.7,0,3-1.3,3-3V86   h2.9c1,0,1.9-0.5,2.5-1.3C93.9,83.9,94.1,82.9,93.7,81.9z M87.3,64.3H85c-1,0-1.9,0.5-2.5,1.3s-0.7,1.8-0.3,2.8L86.6,80H85   c-1.7,0-3,1.3-3,3v9.7H68.5V83c0-1.7-1.3-3-3-3h-1.6l4.4-11.6c0.3-0.9,0.2-2-0.3-2.8c-0.6-0.8-1.5-1.3-2.5-1.3h-2.4v-7.9   c0-3.9,3.2-7.1,7.1-7.1h10c3.9,0,7.1,3.2,7.1,7.1C87.3,56.4,87.3,64.3,87.3,64.3z"/>
	
		<linearGradient id="SVGID_4_" gradientUnits="userSpaceOnUse" x1="75.2936" y1="2" x2="75.2936" y2="94.0024" gradientTransform="matrix(1 0 0 1 0 4)">
		<stop offset="0" style="stop-color:#00EFD1"/>
		<stop offset="1" style="stop-color:#00ACEA"/>
	</linearGradient>
	<path class="st3" d="M75.3,42.8c5.8,0,10.6-4.8,10.6-10.6s-4.8-10.6-10.6-10.6s-10.6,4.8-10.6,10.6S69.5,42.8,75.3,42.8z    M75.3,27.6c2.5,0,4.6,2.1,4.6,4.6s-2.1,4.6-4.6,4.6s-4.6-2.1-4.6-4.6C70.7,29.7,72.8,27.6,75.3,27.6z"/>
	
		<linearGradient id="SVGID_5_" gradientUnits="userSpaceOnUse" x1="48.7936" y1="2" x2="48.7936" y2="94.0024" gradientTransform="matrix(1 0 0 1 0 4)">
		<stop offset="0" style="stop-color:#00EFD1"/>
		<stop offset="1" style="stop-color:#00ACEA"/>
	</linearGradient>
	<path class="st4" d="M67.3,14.8c0-6.4-5.1-11.5-11.5-11.5c-2.5,0-4.9,0.8-7,2.3c-2-1.4-4.5-2.3-7-2.3c-6.4,0-11.5,5.1-11.5,11.5   c0,7.5,6.6,13.3,14.3,20.1l2.1,2.1c0.6,0.6,1.3,0.9,2.1,0.9c0,0,0,0,0.1,0c0.8,0,1.6-0.4,2.1-1l1.9-2.1   C61.3,27.5,67.3,22.1,67.3,14.8z M48.9,30.5l-0.1,0.1l-0.1-0.1C41,23.7,36.3,19.3,36.3,14.8c0-3.1,2.4-5.5,5.5-5.5   c1.8,0,3.6,0.9,4.7,2.2c0.6,0.7,1.4,1.1,2.3,1.1c0.9,0,1.7-0.4,2.3-1.1c1.2-1.4,3-2.2,4.7-2.2c3.1,0,5.5,2.4,5.5,5.5   C61.3,19.2,56.8,23.4,48.9,30.5z"/>
</g>
</svg>
