<svg height="512pt" viewBox="0 -45 512 512" width="512pt" xmlns="http://www.w3.org/2000/svg"><path d="m469.113281 82.570312c0-45.601562-38.105469-82.570312-85.113281-82.570312s-85.113281 36.96875-85.113281 82.570312c0 45.601563 38.105469 82.570313 85.113281 82.570313s85.113281-36.96875 85.113281-82.570313zm0 0" fill="#4ab8f7"/><path d="m213.113281 82.570312c0-45.601562-38.105469-82.570312-85.113281-82.570312s-85.113281 36.96875-85.113281 82.570312c0 45.601563 38.105469 82.570313 85.113281 82.570313s85.113281-36.96875 85.113281-82.570313zm0 0" fill="#80dbff"/><path d="m391.5 179.542969h-15c-66.550781 0-120.5 53.949219-120.5 120.5 0-66.550781-53.949219-120.5-120.5-120.5h-15c-66.550781 0-120.5 53.949219-120.5 120.5v111.628906c0 5.519531 4.476562 10 10 10h492c5.523438 0 10-4.480469 10-10v-111.628906c0-66.550781-53.949219-120.5-120.5-120.5zm0 0" fill="#4ab8f7"/><path d="m135.5 179.542969h-15c-66.550781 0-120.5 53.949219-120.5 120.5v111.628906c0 5.519531 4.476562 10 10 10h246v-121.628906c0-66.550781-53.949219-120.5-120.5-120.5zm0 0" fill="#80dbff"/><path d="m301.132812 192.742188c-15.570312 0-29.667968 6.832031-39.890624 17.875-1.886719 2.035156-3.636719 4.21875-5.242188 6.523437-1.640625-2.355469-3.433594-4.578125-5.367188-6.652344-10.210937-10.96875-24.253906-17.746093-39.761718-17.746093-31.222656 0-56.53125 27.453124-56.53125 61.316406 0 16.820312 6.265625 32.035156 16.375 43.113281l-.007813.007813 78.210938 76.175781c3.875 3.773437 10.050781 3.78125 13.9375.015625l74.953125-72.675782c10.8125-13.382812 19.851562-27.960937 19.851562-46.636718 0-33.863282-25.308594-61.316406-56.527344-61.316406zm0 0" fill="#ff73a5"/><path d="m250.632812 210.488281c-10.210937-10.96875-24.253906-17.746093-39.761718-17.746093-31.222656 0-56.53125 27.453124-56.53125 61.316406 0 16.816406 6.265625 32.035156 16.375 43.113281l-.007813.007813 78.210938 76.171874c1.96875 1.917969 4.527343 2.859376 7.082031 2.832032v-159.042969c-1.640625-2.355469-3.433594-4.578125-5.367188-6.652344zm0 0" fill="#ffa1c8"/></svg>